<svg xmlns="http://www.w3.org/2000/svg" width="34.12" height="44.306" viewBox="0 0 34.12 44.306">
  <path id="Rectangle_3_copy_16" data-name="Rectangle 3 copy 16" d="M0,0H26.87a6.25,6.25,0,0,1,6.25,6.25V37.056a6.25,6.25,0,0,1-6.25,6.25H0a0,0,0,0,1,0,0V0A0,0,0,0,1,0,0Z" transform="translate(0.5 0.5)" fill="#c6d5fb" stroke="#c6d5fb" stroke-width="1"/>
  <path id="Arrow_1165" data-name="Arrow 1165" d="M2928,419.671V401h.037l.11.149h.073l.11.149h.073l.147.186h.074l.037.074h.037l.037.074h.073l.037.074h.037l.037.074h.074l.147.186h.074l.037.074h.037l.037.074h.073l.11.149h.073l.11.149h.074l.147.186h.073l.11.149h.074l.11.149h.073l.11.149h.073l.147.186h.073l.11.149h.073l.11.149h.074l.11.149h.073l.147.186h.074l.11.149h.074l.11.149h.073l.11.149h.074l.147.186h.074l.11.149h.073l.11.149h.074l.11.149h.074l.147.186h.073l.11.149h.074l.11.149h.073l.11.149h.074l.147.186h.073l.037.074h.037l.037.074h.073l.111.149h.073l.11.149h.073l.147.186h.074l.11.149h.073l.11.149h.073l.111.149h.073l.147.186h.073l.11.149h.074l.11.149h.073l.11.149h.073l.147.186h.074l.11.149h.074l.11.149h.073l.037.074h.037l.037.074h.073l.147.186h.073l.11.149h.073l.111.149h.073l.11.149h.073l.147.186h.073l.11.149h.073l.037.074h.037l.037.074h.074l.11.149h.073l.147.186h.073l.037.074h.037l.037.074h.073l.11.149h.074l.11.149h.073l.147.186c.1.074.146.042.184.186Z" transform="translate(-2916 -388)" fill="#123347"/>
</svg>
