<svg id="Group_19" data-name="Group 19" xmlns="http://www.w3.org/2000/svg" xmlns:xlink="http://www.w3.org/1999/xlink" width="38.289" height="39.488" viewBox="0 0 38.289 39.488">
  <defs>
    <clipPath id="clip-path">
      <rect id="Rectangle_7" data-name="Rectangle 7" width="38.289" height="39.488" fill="#406ca5"/>
    </clipPath>
  </defs>
  <g id="Group_18" data-name="Group 18" clip-path="url(#clip-path)">
    <path id="Path_17" data-name="Path 17" d="M83.96,22.627q0-5.073-.008-10.15c0-3.1.01-6.2.005-9.3A3.185,3.185,0,0,0,80.755,0L79.3,0,64.534,0A3.193,3.193,0,0,0,61.18,3.361c0,1.975.008,3.952.01,5.927V19.469h-.01q0,8.1.008,16.2a3.825,3.825,0,0,0,.2,1.209A3.123,3.123,0,0,0,64.4,38.973c1.377.01,2.753.005,4.13.005q3.966,0,7.927,0c1.42,0,2.837,0,4.254,0a3.318,3.318,0,0,0,.692-.063,3.166,3.166,0,0,0,2.555-3.184c.005-1.612-.008-3.222-.008-4.832,0-2.756.01-5.511.01-8.267m-2.35-8.814a1.619,1.619,0,0,1-1.749,1.742q-3.647,0-7.293,0-3.631,0-7.265,0a1.622,1.622,0,0,1-1.772-1.777V5.572a1.622,1.622,0,0,1,1.688-1.686q4.86,0,9.724,0l4.89,0a1.647,1.647,0,0,1,1.777,1.78q0,4.076,0,8.147" transform="translate(-45.67 0)" fill="#406ca5"/>
    <path id="Path_18" data-name="Path 18" d="M12.985,14.044a2.233,2.233,0,0,0-.408,1.194c.555,0,1.08.018,1.6-.008.3-.013.38.091.373.38-.02.626-.008,1.252-.008,1.932H12.577v.976h1.939v2.294c-.555,0-1.088.013-1.622-.008-.264-.008-.34.063-.342.337-.01,1.06.005,2.124-.094,3.174a7.469,7.469,0,0,1-2.081,4.464C9.208,30.027,8.009,31.246,6.8,32.458a19.522,19.522,0,0,0-3.2,3.795,8.513,8.513,0,0,0-1.049,6.626A3.275,3.275,0,0,0,5.05,45.5,3.768,3.768,0,0,0,9.8,42.679a11.747,11.747,0,0,0,.466-3.508c.01-2.806,0-5.612,0-8.421a31.347,31.347,0,0,1,2.3-2.938v2.626c0,.281,0,.56,0,.839s-.005.664-.005.786c.01,2.472.025,4.946-.008,7.417A11.367,11.367,0,0,1,11.4,44.8a5.558,5.558,0,0,1-4.593,3.065,6.014,6.014,0,0,1-4.19-.981,5.942,5.942,0,0,1-2.426-4,11.15,11.15,0,0,1,2.1-8.809,29.32,29.32,0,0,1,3.587-3.914,22.415,22.415,0,0,0,3.255-3.587,6.531,6.531,0,0,0,1.141-3.83c-.035-2.441-.013-4.882,0-7.324a5.493,5.493,0,0,1,.094-.935c.02-.112.15-.616.152-.636a3.661,3.661,0,0,1,1.838-2.162,4.013,4.013,0,0,1,1.962-.408c.081,0,.226.1.228.152.015.695.01,1.392.01,2.114-.6.018-1.176,0-1.572.5" transform="translate(0 -8.419)" fill="#406ca5"/>
  </g>
</svg>
