<svg xmlns="http://www.w3.org/2000/svg" width="16" height="18" viewBox="0 0 16 18">
  <g id="Polygon_1" data-name="Polygon 1" transform="translate(16) rotate(90)" fill="#fff">
    <path d="M 12.87045955657959 15.50000381469727 L 5.129539966583252 15.50000381469727 C 4.231579780578613 15.50000381469727 3.424849987030029 15.03724384307861 2.971519947052002 14.26211357116699 C 2.518189907073975 13.48699378967285 2.510370016098022 12.55698394775391 2.950609922409058 11.77434349060059 L 6.821060180664062 4.893533706665039 C 7.269909858703613 4.095583915710449 8.084469795227051 3.61919379234314 9 3.61919379234314 C 9.915530204772949 3.61919379234314 10.73009014129639 4.095583915710449 11.17893981933594 4.893533706665039 L 15.04938983917236 11.77434349060059 C 15.4896297454834 12.55698394775391 15.48180961608887 13.48699378967285 15.02847957611084 14.26211357116699 C 14.57514953613281 15.03724384307861 13.76842021942139 15.50000381469727 12.87045955657959 15.50000381469727 Z" stroke="none"/>
    <path d="M 9 4.119183540344238 C 8.267569541931152 4.119183540344238 7.615920066833496 4.500293731689453 7.256850242614746 5.138663291931152 L 3.38638973236084 12.01947402954102 C 3.034210205078125 12.64558410644531 3.040459632873535 13.38959312438965 3.403120040893555 14.00969314575195 C 3.765789985656738 14.62979316711426 4.411179542541504 15.00000381469727 5.12954044342041 15.00000381469727 L 12.87046051025391 15.00000381469727 C 13.58881950378418 15.00000381469727 14.23421001434326 14.62979316711426 14.59687995910645 14.00969314575195 C 14.95953941345215 13.38959312438965 14.96578979492188 12.64558410644531 14.61359977722168 12.01947402954102 L 10.74316024780273 5.138663291931152 C 10.38406944274902 4.500303268432617 9.732430458068848 4.119183540344238 9 4.119183540344238 M 8.999996185302734 3.119183540344238 C 10.02063179016113 3.119183540344238 11.04126930236816 3.628923416137695 11.61472988128662 4.648404121398926 L 15.48517990112305 11.52921390533447 C 16.61008071899414 13.52902412414551 15.16493988037109 16.00000381469727 12.87046051025391 16.00000381469727 L 5.12954044342041 16.00000381469727 C 2.835060119628906 16.00000381469727 1.389919281005859 13.52902412414551 2.514820098876953 11.52921390533447 L 6.385270118713379 4.648404121398926 C 6.958724975585938 3.628923416137695 7.97935962677002 3.119183540344238 8.999996185302734 3.119183540344238 Z" stroke="none" fill="#249e00"/>
  </g>
  <path id="Polygon_2" data-name="Polygon 2" d="M4.152,1.357a1,1,0,0,1,1.7,0l3.2,5.113A1,1,0,0,1,8.2,8H1.8A1,1,0,0,1,.956,6.47Z" transform="translate(11 4) rotate(90)" fill="#249e00"/>
</svg>
