<svg xmlns="http://www.w3.org/2000/svg" width="63" height="62" viewBox="0 0 63 62">
  <ellipse id="Ellipse_21" data-name="Ellipse 21" cx="31.5" cy="31" rx="31.5" ry="31" fill="#e8eef6"/>
  <g id="Group_630" data-name="Group 630" transform="translate(16.076 12)">
    <path id="Path_420" data-name="Path 420" d="M.061,106.249c0-2.56-.16-5.066.038-7.544a7.13,7.13,0,0,1,7.068-6.5c5.327-.084,10.658-.093,15.985,0a6.983,6.983,0,0,1,6.982,7.079c.054,2.284.01,4.57.01,6.939H22.365c.994-3.856-.034-7.014-3.587-9A7.222,7.222,0,0,0,10.5,97.8c-2.848,2.117-3.6,5.013-2.611,8.446Z" transform="translate(0 -72.386)" fill="#406ca5"/>
    <path id="Path_421" data-name="Path 421" d="M39.726,16.779a8.39,8.39,0,1,1,8.417-8.373,8.428,8.428,0,0,1-8.417,8.373" transform="translate(-24.581 0)" fill="#406ca5"/>
    <path id="Subtraction_2" data-name="Subtraction 2" d="M6.088,12.178H6.076A6.071,6.071,0,0,1,1.793,1.8,6.024,6.024,0,0,1,6.088,0l.027,0a6.085,6.085,0,0,1,4.279,1.807A6.07,6.07,0,0,1,12.209,6.08a5.981,5.981,0,0,1-1.752,4.293A6.1,6.1,0,0,1,6.088,12.178Zm-.049-5.9v0L7.922,8.164l.473-.479L6.512,5.8,8.395,3.92l-.473-.473L6.039,5.33,4.156,3.447,3.68,3.92,5.563,5.8,3.68,7.686l.477.479L6.039,6.283Z" transform="translate(9.043 25.195)" fill="#406ca5" stroke="rgba(0,0,0,0)" stroke-miterlimit="10" stroke-width="1"/>
  </g>
</svg>
