<svg id="Group_353" data-name="Group 353" xmlns="http://www.w3.org/2000/svg" width="48.388" height="45.795" viewBox="0 0 48.388 45.795">
  <g id="Group_33" data-name="Group 33">
    <rect id="Rectangle_4" data-name="Rectangle 4" width="48.388" height="45.795" rx="8" fill="#d1e7f1"/>
    <path id="Icon_awesome-staylinked" data-name="Icon awesome-staylinked" d="M20.833,15.923l.147.147L11.726,6.963a.584.584,0,0,0-.751-.027L7.855,9.309a.432.432,0,0,0-.06.664l3.707,3.5a.6.6,0,0,0,.762.027l.005-.005a.6.6,0,0,1,.762.027L17.6,17.948a.431.431,0,0,1-.049.664l-5.074,4.028a.607.607,0,0,1-.773-.022L3.44,14.59a.591.591,0,0,0-.757-.027L.19,16.462a.433.433,0,0,0-.065.664L11.486,27.8a.717.717,0,0,0,.942-.044l10.779-8.922a.43.43,0,0,0,.038-.664Zm2.967-4.54L12.341.136a.678.678,0,0,0-.887.06L.2,9.021a.429.429,0,0,0-.065.664l2.3,2.27,9.347,8.988a.615.615,0,0,0,.778.022l2.733-2.112-.016-.016.419-.327a.424.424,0,0,0,.049-.664l-3.108-2.961a.614.614,0,0,0-.773-.027l-.005.005a.614.614,0,0,1-.773-.022l-5.15-5a.429.429,0,0,1,.06-.664l5.019-3.892a.591.591,0,0,1,.757.027L20.5,13.969a.607.607,0,0,0,.768.027l2.493-1.949a.427.427,0,0,0,.038-.664Z" transform="translate(12.226 8.92)" fill="#0784bd"/>
  </g>
</svg>
