<svg xmlns="http://www.w3.org/2000/svg" width="48.388" height="45.795" viewBox="0 0 48.388 45.795">
  <g id="Group_33" data-name="Group 33">
    <rect id="Rectangle_4" data-name="Rectangle 4" width="48.388" height="45.795" rx="8" fill="#d1e7f1"/>
  </g>
  <g id="Group_360" data-name="Group 360" transform="translate(12.638 12.097)">
    <g id="Group_26" data-name="Group 26">
      <path id="Path_10" data-name="Path 10" d="M2.008,21.6V14.436h2.3c0,.059.009.119.009.179q0,2.82,0,5.639c0,.135.029.183.173.18.463-.009.925-.008,1.388,0,.13,0,.16-.037.16-.163q-.006-2.82,0-5.639v-.207h.154c.67,0,1.34,0,2.01,0,.13,0,.16.038.16.163q-.006,2.82,0,5.639v.188a.485.485,0,0,0,.082.017c.521,0,1.041,0,1.562,0,.12,0,.115-.065.115-.147q0-1.5,0-2.993V14.425h.153c.67,0,1.34,0,2.01,0,.134,0,.157.045.157.166q-.005,2.82,0,5.639v.193h1.686V14.436h2.313v5.985H21V13.64h-.2q-8.539,0-17.078-.006a4.428,4.428,0,0,1-.953-.137,2.618,2.618,0,0,1-1.353-.967A5.381,5.381,0,0,1,0,8.708,4.64,4.64,0,0,1,1.246,5.524,4.324,4.324,0,0,1,3.609,4.3a2.536,2.536,0,0,1,.473-.047c.66-.005,1.321,0,1.981,0h.186V3.784c.066,0,.117-.008.169-.008.458,0,.916,0,1.374,0,.1,0,.131-.032.156-.121A1.552,1.552,0,0,1,9.437,2.449a1.377,1.377,0,0,0,1.133-.7,2.308,2.308,0,0,1,2.071-1.2c.858-.008,1.716,0,2.574,0h.163c.015-.018.026-.025.027-.033.053-.4.177-.511.583-.512.347,0,.694,0,1.041,0a.451.451,0,0,1,.5.5c0,.2,0,.4,0,.593a.207.207,0,0,0,.019.046h3.211c.358,0,.523.163.524.519q0,.166,0,.333c0,.364-.168.534-.529.534H17.539V4.141H19.65c.378,0,.539.161.54.533q0,.159,0,.318c0,.383-.16.54-.548.54h-2.1V7.046c.056,0,.112.008.168.008h3.022c.4,0,.552.157.553.552,0,.121,0,.241,0,.361a.442.442,0,0,1-.484.472q-1.54,0-3.08,0h-.191c0,.234,0,.454,0,.674,0,.4-.16.558-.563.558h-.969c-.408,0-.529-.1-.6-.515-.043,0-.089-.008-.136-.008-.916,0-1.831.008-2.747.009a2.25,2.25,0,0,1-1.79-.94,1.229,1.229,0,0,1-.143-.2A1.3,1.3,0,0,0,9.3,7.311a.882.882,0,0,1-.385-.082,1.763,1.763,0,0,1-1-1.332H6.253V5.51H6.08c-.636,0-1.273.005-1.909,0a2.625,2.625,0,0,0-2.026.922A3.337,3.337,0,0,0,1.34,8.343,4.247,4.247,0,0,0,2.4,11.726a2.115,2.115,0,0,0,1.7.756q8.958,0,17.916,0h.221v2.6h.578c.232,0,.295.062.3.288q0,1.648,0,3.3c0,.226-.065.291-.292.291h-.572V21.6Z" transform="translate(0.001 0)" fill="#0784bd"/>
    </g>
  </g>
</svg>
