<svg xmlns="http://www.w3.org/2000/svg" width="22.346" height="25.538" viewBox="0 0 22.346 25.538">
    <path id="Icon_awesome-calendar" data-name="Icon awesome-calendar" d="M.6,9.577H21.747a.6.6,0,0,1,.6.6V23.144a2.4,2.4,0,0,1-2.394,2.394H2.394A2.4,2.4,0,0,1,0,23.144V10.175A.6.6,0,0,1,.6,9.577ZM22.346,7.382v-1.8a2.4,2.4,0,0,0-2.394-2.394H17.557V.6a.6.6,0,0,0-.6-.6h-2a.6.6,0,0,0-.6.6V3.192H7.981V.6a.6.6,0,0,0-.6-.6h-2a.6.6,0,0,0-.6.6V3.192H2.394A2.4,2.4,0,0,0,0,5.586v1.8a.6.6,0,0,0,.6.6H21.747A.6.6,0,0,0,22.346,7.382Z" fill="#fff" opacity="1"/>
  </svg>
  