<svg xmlns="http://www.w3.org/2000/svg" xmlns:xlink="http://www.w3.org/1999/xlink" width="22.346" height="23.974" viewBox="0 0 22.346 23.974">
    <defs>
      <clipPath id="clip-path">
        <rect id="Rectangle_272" data-name="Rectangle 272" width="22.346" height="23.974" fill="#fff"/>
      </clipPath>
    </defs>
    <g id="Group_543" data-name="Group 543" transform="translate(-1.068)">
      <g id="Group_542" data-name="Group 542" transform="translate(1.068)" opacity="1" clip-path="url(#clip-path)">
        <path id="Path_153" data-name="Path 153" d="M.954,7.933C.931,7.581.909,7.252.883,6.879L.013,6.752a11.382,11.382,0,0,1,.02-1.413A.779.779,0,0,1,.46,4.88Q5.594,2.457,10.748.076a1.05,1.05,0,0,1,.78,0q5.2,2.379,10.367,4.815a.934.934,0,0,1,.416.618,7.708,7.708,0,0,1,.019,1.257l-.854.1L21.4,7.933Z" transform="translate(0 0)" fill="#fff"/>
        <path id="Path_154" data-name="Path 154" d="M21.555,136.1l.115,1.107.756.1v1.616H.213V137.3l.835-.082.091-1.12Z" transform="translate(-0.18 -114.951)" fill="#fff"/>
        <path id="Path_155" data-name="Path 155" d="M101.594,66.366V57.76l-.776-.158V56.581h4.827v1.026l-.791.128v8.631l.8.1v1.9h-4.835v-1.9l.779-.1" transform="translate(-85.148 -47.788)" fill="#fff"/>
        <path id="Path_156" data-name="Path 156" d="M11.927,66.5l.745-.086V57.789l-.76-.138V56.63h4.8v1.015l-.76.144V66.4l.75.109v1.9H11.927Z" transform="translate(-10.061 -47.83)" fill="#fff"/>
        <path id="Path_157" data-name="Path 157" d="M60.179,66.4l.794.089v1.891H56.147V66.5l.773-.113V57.777l-.782-.147V56.607h4.833v1.019l-.792.133Z" transform="translate(-47.414 -47.81)" fill="#fff"/>
      </g>
    </g>
  </svg>
  