<svg xmlns="http://www.w3.org/2000/svg" width="34.12" height="44.306" viewBox="0 0 34.12 44.306">
  <g id="Group_463" data-name="Group 463" transform="translate(0.5 0.5)">
    <path id="Rectangle_3_copy_16" data-name="Rectangle 3 copy 16" d="M6.25,0H33.12a0,0,0,0,1,0,0V43.306a0,0,0,0,1,0,0H6.25A6.25,6.25,0,0,1,0,37.056V6.25A6.25,6.25,0,0,1,6.25,0Z" transform="translate(0 0)" fill="#c6d5fb" stroke="#c6d5fb" stroke-width="1"/>
    <path id="Arrow_1165" data-name="Arrow 1165" d="M2939.365,419.671V401h-.037l-.11.149h-.073l-.11.149h-.073l-.147.186h-.074l-.037.074h-.037l-.037.074h-.073l-.037.074h-.037l-.037.074h-.074l-.147.186h-.074l-.037.074h-.037l-.037.074h-.073l-.11.149h-.073l-.11.149h-.074l-.147.186h-.073l-.11.149h-.074l-.11.149h-.073l-.11.149h-.073l-.147.186h-.073l-.11.149h-.073l-.11.149h-.074l-.11.149h-.073l-.147.186h-.074l-.11.149h-.074l-.11.149h-.073l-.11.149h-.074l-.147.186h-.074l-.11.149h-.073l-.11.149h-.074l-.11.149h-.074l-.147.186h-.073l-.11.149h-.074l-.11.149h-.073l-.11.149h-.074l-.147.186h-.073l-.037.074h-.037l-.037.074h-.073l-.111.149h-.073l-.11.149h-.073l-.147.186h-.074l-.11.149h-.073l-.11.149h-.073l-.111.149h-.073l-.147.186h-.073l-.11.149h-.074l-.11.149h-.073l-.11.149h-.073l-.147.186h-.074l-.11.149h-.074l-.11.149h-.073l-.037.074h-.037l-.037.074h-.073l-.147.186h-.073l-.11.149h-.073l-.111.149h-.073l-.11.149h-.073l-.147.186h-.073l-.11.149h-.073l-.037.074h-.037l-.037.074h-.074l-.11.149h-.073l-.147.186h-.073l-.037.074h-.037l-.037.074h-.073l-.11.149h-.074l-.11.149h-.073l-.147.186c-.1.074-.146.042-.184.186Z" transform="translate(-2917.745 -388.5)" fill="#123347"/>
  </g>
</svg>
