<svg xmlns="http://www.w3.org/2000/svg" width="74" height="69" viewBox="0 0 74 69">
  <ellipse id="Ellipse_21" data-name="Ellipse 21" cx="37" cy="34.5" rx="37" ry="34.5" fill="#e8eef6"/>
  <g id="inventory_2_black_24dp" transform="translate(23.407 20.025)">
    <g id="Group_548" data-name="Group 548" transform="translate(0 0)">
      <rect id="Rectangle_216" data-name="Rectangle 216" width="28" height="28" transform="translate(-0.408 -0.025)" fill="none"/>
    </g>
    <g id="Group_549" data-name="Group 549" transform="translate(2.641 2.659)">
      <path id="Path_195" data-name="Path 195" d="M22.457,2H4.273A2.357,2.357,0,0,0,2,4.273V7.694A2.3,2.3,0,0,0,3.137,9.615V22.457A2.442,2.442,0,0,0,5.41,24.73H21.321a2.442,2.442,0,0,0,2.273-2.273V9.615A2.3,2.3,0,0,0,24.73,7.694V4.273A2.357,2.357,0,0,0,22.457,2ZM16.775,15.638H9.956V13.365h6.819Zm5.683-7.956H4.273V4.273H22.457Z" transform="translate(-2 -2)" fill="#2d4c86"/>
    </g>
  </g>
</svg>
