<svg xmlns="http://www.w3.org/2000/svg" width="11.475" height="14.122" viewBox="0 0 11.475 14.122">
  <path id="Icon_awesome-running" data-name="Icon awesome-running" d="M7.5,2.648A1.324,1.324,0,1,0,6.179,1.324,1.324,1.324,0,0,0,7.5,2.648ZM3.136,8.757l-.408.952H.883a.883.883,0,1,0,0,1.765H3.019a1.321,1.321,0,0,0,1.217-.8l.242-.566-.294-.174A2.627,2.627,0,0,1,3.136,8.757Zm7.456-2.578H9.377L8.659,4.71A2.647,2.647,0,0,0,6.955,3.3L4.994,2.721a2.637,2.637,0,0,0-2.23.473L1.67,4.033a.883.883,0,0,0,1.074,1.4l1.095-.839a.859.859,0,0,1,.7-.169l.405.121L3.908,6.956a1.77,1.77,0,0,0,.725,2.215l2.344,1.384-.758,2.42A.883.883,0,1,0,7.9,13.5l.873-2.788a1.329,1.329,0,0,0-.6-1.5l-1.689-1,.864-2.159L7.914,7.2A1.332,1.332,0,0,0,9.1,7.943h1.489a.883.883,0,1,0,0-1.765Z" fill="#249e00"/>
</svg>
