<svg id="Group_313" data-name="Group 313" xmlns="http://www.w3.org/2000/svg" xmlns:xlink="http://www.w3.org/1999/xlink" width="13.511" height="14.495" viewBox="0 0 13.511 14.495">
  <defs>
    <clipPath id="clip-path">
      <rect id="Rectangle_172" data-name="Rectangle 172" width="13.511" height="14.495" fill="#249e00"/>
    </clipPath>
  </defs>
  <g id="Group_309" data-name="Group 309" clip-path="url(#clip-path)">
    <path id="Path_106" data-name="Path 106" d="M.062,2.794A2.58,2.58,0,0,0,2.766.321,19.375,19.375,0,0,1,9.75.314,2.406,2.406,0,0,0,11.655,2.63c-.291.278-.541.53-.81.759-.054.046-.189.021-.277,0a1.782,1.782,0,0,1-1.327-1.52c-.057-.329-.209-.408-.508-.446A16.278,16.278,0,0,0,4.987,1.3c-.458.048-.917.094-1.372.165a.367.367,0,0,0-.257.213A2.165,2.165,0,0,1,1.094,3.551c0,.842-.017,1.673,0,2.5a9.9,9.9,0,0,0,.567,3.358A5.432,5.432,0,0,0,4.093,12.14c.631.374,1.284.712,1.933,1.053a.428.428,0,0,0,.329.027,13.921,13.921,0,0,0,3.038-1.758A5.094,5.094,0,0,0,11.209,8.31a.844.844,0,0,1,.191-.4,11.351,11.351,0,0,1,.956-.938,6.805,6.805,0,0,1-1.817,4.9,14.436,14.436,0,0,1-4.2,2.6.329.329,0,0,1-.25,0A14.281,14.281,0,0,1,2,11.857,6.481,6.481,0,0,1,.284,8.3a23.586,23.586,0,0,1-.222-5.5" transform="translate(0 0)" fill="#249e00"/>
    <path id="Path_107" data-name="Path 107" d="M49.1,56.166l4.515-4.6c.146-.149.294-.3.445-.441.27-.257.462-.255.734.008.213.206.423.416.632.627.317.321.318.479,0,.8q-2.64,2.629-5.282,5.255c-.241.24-.481.483-.727.719a.422.422,0,0,1-.684.008q-1.715-1.711-3.421-3.432a.4.4,0,0,1,.007-.657c.22-.23.448-.454.675-.677.306-.3.476-.3.778,0q1.015,1.013,2.024,2.032c.084.085.156.182.306.358" transform="translate(-42.151 -47.563)" fill="#249e00"/>
  </g>
</svg>
