<svg id="Group_586" data-name="Group 586" xmlns="http://www.w3.org/2000/svg" xmlns:xlink="http://www.w3.org/1999/xlink" width="39.826" height="38.864" viewBox="0 0 39.826 38.864">
    <defs>
      <clipPath id="clip-path">
        <rect id="Rectangle_53" data-name="Rectangle 53" width="23.643" height="28.217" fill="#fafbfb"/>
      </clipPath>
    </defs>
    <ellipse id="Ellipse_7" data-name="Ellipse 7" cx="19.913" cy="19.432" rx="19.913" ry="19.432" transform="translate(0 0)" fill="#cd9999"/>
    <g id="Group_116" data-name="Group 116" transform="translate(7.355 5.323)" clip-path="url(#clip-path)">
      <path id="Path_35" data-name="Path 35" d="M15.891,104.469q0-3.545,0-7.09a1.318,1.318,0,0,1,2.627-.215c.008.11,0,.22,0,.33q0,6.925,0,13.849a2.484,2.484,0,0,0,2.648,2.58H31.637a2.485,2.485,0,0,0,2.649-2.58q0-6.985,0-13.969a1.313,1.313,0,0,1,2.6-.322,2.476,2.476,0,0,1,.029.418q0,6.955,0,13.909a5.049,5.049,0,0,1-4.3,5.037,5.326,5.326,0,0,1-.918.073q-5.294.007-10.588,0a5.092,5.092,0,0,1-5.218-5.083q0-3.47,0-6.94" transform="translate(-14.583 -88.276)" fill="#fafbfb"/>
      <path id="Path_36" data-name="Path 36" d="M17.07,3.849h.937c1.416,0,2.831-.007,4.247,0A1.291,1.291,0,0,1,23.584,5.5a1.3,1.3,0,0,1-1.145.909c-.071.006-.144,0-.215,0H1.422a1.29,1.29,0,1,1,0-2.567c1.58,0,3.159,0,4.739,0h.416V3.511c0-.721,0-1.442,0-2.162A1.283,1.283,0,0,1,7.942.006q3.877-.011,7.755,0a1.282,1.282,0,0,1,1.371,1.34c.007.819,0,1.638,0,2.5M9.209,3.823h5.22V2.588H9.209Z" transform="translate(0 0)" fill="#fafbfb"/>
      <path id="Path_37" data-name="Path 37" d="M95.809,133.587c0-1.491-.005-2.983,0-4.474a1.279,1.279,0,0,1,1.08-1.246,1.3,1.3,0,0,1,1.413.727,1.66,1.66,0,0,1,.129.64q.012,4.384,0,8.767a1.317,1.317,0,1,1-2.63,0q0-2.207,0-4.414" transform="translate(-87.928 -117.586)" fill="#fafbfb"/>
      <path id="Path_38" data-name="Path 38" d="M162.257,133.67c0,1.491,0,2.983,0,4.474a1.311,1.311,0,0,1-2.423.667,1.615,1.615,0,0,1-.2-.741q-.02-4.414-.006-8.828a1.315,1.315,0,1,1,2.628.014q0,2.207,0,4.414" transform="translate(-146.496 -117.631)" fill="#fafbfb"/>
    </g>
  </svg>
  