<svg id="Currency_Icon" data-name="Currency Icon" xmlns="http://www.w3.org/2000/svg" xmlns:xlink="http://www.w3.org/1999/xlink" width="46.447" height="46.447" viewBox="0 0 46.447 46.447">
  <defs>
    <clipPath id="clip-path">
      <rect id="Rectangle_1" data-name="Rectangle 1" width="27.919" height="17.313" fill="#fff"/>
    </clipPath>
  </defs>
  <circle id="background" cx="23.223" cy="23.223" r="23.223" fill="#4f46ba"/>
  <g id="Group_4" data-name="Group 4" transform="translate(9.264 14.567)">
    <g id="Group_4-2" data-name="Group 4" clip-path="url(#clip-path)">
      <path id="Path_7" data-name="Path 7" d="M8.733,1.559C8.781.937,8.763.288,9.512.274c.771-.014.819.638.878,1.311.865,0,1.709.028,2.548-.029.131-.009.344-.416.333-.629-.04-.735.288-.944.974-.926,1.344.036,2.691.028,4.035,0,.624-.011.965.2.87.861-.091.631.223.726.772.743A7.832,7.832,0,0,1,27.7,7.693a7.752,7.752,0,0,1-7.133,9.541c-4.41.11-8.828.1-13.239,0A7.723,7.723,0,0,1,0,9.506,7.776,7.776,0,0,1,7.193,1.642c.491-.033.984-.054,1.539-.083m7.1,9.912a2.2,2.2,0,0,0,2.174-3,18.567,18.567,0,0,0-1.735-2.98c-.278-.428-.715-.376-.988.05a21.8,21.8,0,0,0-1.625,2.728,2.3,2.3,0,0,0,2.174,3.2" transform="translate(0 0)" fill="#fff"/>
    </g>
  </g>
</svg>
