<svg xmlns="http://www.w3.org/2000/svg" xmlns:xlink="http://www.w3.org/1999/xlink" width="23.132" height="23.119" viewBox="0 0 23.132 23.119">
    <defs>
      <clipPath id="clip-path">
        <rect id="Rectangle_271" data-name="Rectangle 271" width="23.132" height="23.119" fill="#fff"/>
      </clipPath>
    </defs>
    <g id="Group_541" data-name="Group 541" transform="translate(0.654)">
      <g id="Group_540" data-name="Group 540" transform="translate(-0.654)" opacity="1" clip-path="url(#clip-path)">
        <path id="Path_152" data-name="Path 152" d="M11.58.019C14.652.019,17.726.058,20.8,0a2.392,2.392,0,0,1,2.332,2.334c-.076,1.152-.025,2.313-.014,3.471a1.987,1.987,0,0,1-.838,1.712.668.668,0,0,0-.285.612c.006,4.134-.007,8.269.012,12.4a2.454,2.454,0,0,1-1.187,2.25,1.929,1.929,0,0,1-1.065.33c-5.461-.005-10.922-.015-16.384.008a2.483,2.483,0,0,1-2.223-2.147c.007-.21-.018-.42-.018-.63q0-6,0-11.993a1.019,1.019,0,0,0-.407-.941A1.825,1.825,0,0,1,.008,5.864C.013,4.633.038,3.4,0,2.171A2.37,2.37,0,0,1,2.141.01C5.287.039,8.433.02,11.58.02Zm-.041,5.764H20.5c.4,0,.463-.056.465-.451,0-.9-.005-1.81.006-2.714,0-.29-.111-.391-.392-.388-.81.01-1.621,0-2.431,0H2.652c-.482,0-.5.015-.5.5q0,1.247,0,2.493c0,.533.028.561.544.562h8.84m.025,5.758c-1.051,0-2.1,0-3.153,0-.273,0-.4.08-.393.38.018.556.011,1.114,0,1.671,0,.258.09.389.366.389q3.169-.006,6.338,0c.269,0,.377-.118.373-.381-.007-.546-.016-1.093,0-1.639.012-.318-.1-.425-.418-.421-1.04.013-2.081,0-3.122.005" transform="translate(0 0)" fill="#fff"/>
      </g>
    </g>
  </svg>
  