<svg xmlns="http://www.w3.org/2000/svg" width="27.219" height="23.816" viewBox="0 0 27.219 23.816">
  <g id="Menu_Icon" data-name="Menu Icon" transform="translate(5.609 2.188)">
    <path id="Icon_awesome-binoculars" data-name="Icon awesome-binoculars" d="M22.115,3.1a.85.85,0,0,0-.851-.851h-3.4a.85.85,0,0,0-.851.851V5.652h5.1ZM3.4,9.054C3.264,14.043.184,15.127,0,22.026v2.339a1.7,1.7,0,0,0,1.7,1.7H6.8a1.7,1.7,0,0,0,1.7-1.7V15.859h1.7V7.354H5.1A1.717,1.717,0,0,0,3.4,9.054Zm20.424,0a1.717,1.717,0,0,0-1.7-1.7H17.012v8.506h1.7v8.506a1.7,1.7,0,0,0,1.7,1.7h5.1a1.7,1.7,0,0,0,1.7-1.7V22.026c-.184-6.9-3.264-7.983-3.4-12.972ZM9.356,2.25h-3.4A.85.85,0,0,0,5.1,3.1V5.652h5.1V3.1A.85.85,0,0,0,9.356,2.25Zm2.552,13.609h3.4V7.354h-3.4Z" transform="translate(-5.609 -4.438)" fill="#f5f4f9"/>
  </g>
</svg>
