<svg id="Currency_Icon" data-name="Currency Icon" xmlns="http://www.w3.org/2000/svg" xmlns:xlink="http://www.w3.org/1999/xlink" width="46.447" height="46.447" viewBox="0 0 46.447 46.447">
  <defs>
    <clipPath id="clip-path">
      <rect id="Rectangle_2" data-name="Rectangle 2" width="23.975" height="21.279" fill="#fff"/>
    </clipPath>
  </defs>
  <circle id="background" cx="23.223" cy="23.223" r="23.223" fill="#4f46ba"/>
  <g id="Group_6" data-name="Group 6" transform="translate(13.144 14.187)">
    <g id="Group_5" data-name="Group 5" clip-path="url(#clip-path)">
      <path id="Path_8" data-name="Path 8" d="M4.693,21.279c-1.064-.147-2.356-.294-3.636-.513C.016,20.588-.214,20.1.183,19.1c.882-2.226,1.751-4.456,2.668-6.668a1.506,1.506,0,0,0-.061-1.547,1.332,1.332,0,0,1,.2-1.844A16.434,16.434,0,0,0,4.206,7.556,5.767,5.767,0,0,1,8.759,5.278a1.836,1.836,0,0,0,.807-.267c.53-.329.945-.881,1.692-.745.116.021.273-.144.4-.234C15.9,1.076,14.3,1.82,19.784.6c.89-.2,1.79-.355,2.676-.571.61-.149.78.214.875.672.1.475-.054.761-.593.867-1.678.33-3.342.73-5.021,1.058a4.671,4.671,0,0,0-2.7,1.491,3.182,3.182,0,0,1-.573.587c-1.065.7-1.223,1.857-1.484,2.938a2.669,2.669,0,0,0,.126,1.335,4.673,4.673,0,0,1-.434,3.953c-.089.149-.222.35-.184.484A2.99,2.99,0,0,1,12,15.636c-.412.839-.873,1.661-1.2,2.532-.736,1.936-2.278,2.694-4.165,2.975-.562.084-1.137.083-1.941.137m2.543-2.435-.242.022a4.651,4.651,0,0,1-.277-.723c-.135-.646-.2-1.311-.359-1.949-.294-1.149-.192-2.133,1.035-2.75-1.188-.4-1.2-.4-1.688.585-.662,1.35-1.3,2.711-1.947,4.069-.19.4-.361.807-.572,1.28a31.691,31.691,0,0,0,3.507-.028,3.23,3.23,0,0,0,2.682-1.777,16.28,16.28,0,0,0,.974-2.33,1.61,1.61,0,0,0-.215-1.1.739.739,0,0,0-1.018-.273c-.436.192-.9.324-1.325.535a1.148,1.148,0,0,0-.675,1.289c.1.814.145,1.635.193,2.455a4.236,4.236,0,0,1-.072.7" transform="translate(0 0)" fill="#fff"/>
      <path id="Path_9" data-name="Path 9" d="M162.363,24.2a25.077,25.077,0,0,1,.771,2.439.9.9,0,0,1-.883,1.18.884.884,0,0,1-.91-1.153,23.693,23.693,0,0,1,.762-2.455l.261-.011" transform="translate(-139.19 -20.882)" fill="#fff"/>
    </g>
  </g>
</svg>
