<svg id="Currency_Icon" data-name="Currency Icon" xmlns="http://www.w3.org/2000/svg" xmlns:xlink="http://www.w3.org/1999/xlink" width="46.447" height="46.447" viewBox="0 0 46.447 46.447">
  <defs>
    <clipPath id="clip-path">
      <rect id="Rectangle_4" data-name="Rectangle 4" width="22.776" height="22.782" fill="#fff"/>
    </clipPath>
  </defs>
  <circle id="background" cx="23.223" cy="23.223" r="23.223" fill="#4f46ba"/>
  <g id="Group_10" data-name="Group 10" transform="translate(12.028 12.62)">
    <g id="Group_9" data-name="Group 9" clip-path="url(#clip-path)">
      <path id="Path_11" data-name="Path 11" d="M.069,16.665c.163-.878.32-1.727.478-2.575q.5-2.664,1-5.327.569-3.042,1.135-6.084c.039-.213.038-.434.086-.644A2.608,2.608,0,0,1,5.306,0Q10.85,0,16.395,0c.523,0,1.05-.018,1.569.034a2.629,2.629,0,0,1,2.247,2.352c.056.6.188,1.2.3,1.8q.764,4.113,1.536,8.224.389,2.081.781,4.162c0,.023.005.047.007.066-.269-.152-.528-.315-.8-.449a4.03,4.03,0,0,0-1.788-.413H7.42q-2.357,0-4.714,0a4.327,4.327,0,0,0-2.512.807l-.125.083m10.7-6.431a.185.185,0,0,0-.027.018L9.614,11.373a1.428,1.428,0,0,1-.64.385,1.067,1.067,0,0,1-1.425-.888,1.261,1.261,0,0,1,.369-1.085c.707-.719,1.417-1.434,2.14-2.137A1.238,1.238,0,0,1,11.8,7.613a.671.671,0,0,0,.933-.962,2.3,2.3,0,0,0-.5-.387,2.647,2.647,0,0,0-3.164.484C8.383,7.422,7.7,8.1,7.035,8.785a3.179,3.179,0,0,0-.483.633,2.445,2.445,0,0,0,1.191,3.554,2.527,2.527,0,0,0,2.761-.61c.395-.366.764-.759,1.146-1.139.248-.247.5-.491.769-.757a2.262,2.262,0,0,1-1.655-.232m1.391-4.69c.374-.375.752-.751,1.128-1.13a1.46,1.46,0,0,1,.764-.425A1.06,1.06,0,0,1,15.37,5.047a1.318,1.318,0,0,1-.392.961c-.126.133-.258.259-.387.388-.559.559-1.122,1.114-1.677,1.678a1.272,1.272,0,0,1-1.807.082.653.653,0,0,0-.922.048.665.665,0,0,0,0,.926,2.5,2.5,0,0,0,.5.385,2.652,2.652,0,0,0,3.12-.455q1.069-1.048,2.116-2.119a2.629,2.629,0,0,0,.781-1.895,2.426,2.426,0,0,0-2.3-2.412,2.617,2.617,0,0,0-2,.774c-.558.539-1.1,1.095-1.65,1.642-.079.079-.167.148-.251.222a2.468,2.468,0,0,1,1.646.272" transform="translate(-0.066 0)" fill="#fff"/>
      <path id="Path_12" data-name="Path 12" d="M11.415,420.408q4.336,0,8.672,0a2.63,2.63,0,0,1,2.579,1.871,1.85,1.85,0,0,1,.1.492,12.017,12.017,0,0,1-.021,1.524,2.589,2.589,0,0,1-2.506,2.242c-.716.012-1.433,0-2.15,0H10.378c-2.589,0-5.179.007-7.768,0A2.605,2.605,0,0,1,0,423.907a9.21,9.21,0,0,1,.047-1.33A2.613,2.613,0,0,1,2.727,420.4c1.3.01,2.609,0,3.914,0h4.774Zm7.413,4.38a1.311,1.311,0,1,0-1.3-1.316,1.312,1.312,0,0,0,1.3,1.316" transform="translate(0 -403.763)" fill="#fff"/>
    </g>
  </g>
</svg>
