<svg xmlns="http://www.w3.org/2000/svg" width="21.116" height="19.492" viewBox="0 0 21.116 19.492">
    <g id="Icon_ionic-ios-wallet" data-name="Icon ionic-ios-wallet" transform="translate(-2.032 -4.499)">
      <path id="Path_150" data-name="Path 150" d="M21.445,11.25H6.421A3.048,3.048,0,0,0,3.375,14.3v8.527a3.048,3.048,0,0,0,3.046,3.046H21.445a3.048,3.048,0,0,0,3.046-3.046V14.3A3.048,3.048,0,0,0,21.445,11.25Z" transform="translate(-1.343 -1.877)" fill="#fff" opacity="1"/>
      <path id="Path_151" data-name="Path 151" d="M18.657,4.551,6.733,6.88C5.82,7.083,4.5,8,4.5,9.119a3.2,3.2,0,0,1,2.487-.964H21.555V7.114a2.915,2.915,0,0,0-.706-1.909h0A2.4,2.4,0,0,0,18.657,4.551Z" transform="translate(-1.055 0)" fill="#fff" opacity="0.5"/>
    </g>
  </svg>
  