<svg xmlns="http://www.w3.org/2000/svg" xmlns:xlink="http://www.w3.org/1999/xlink" width="24.361" height="24.399" viewBox="0 0 24.361 24.399">
    <defs>
      <clipPath id="clip-path">
        <rect id="Rectangle_270" data-name="Rectangle 270" width="24.361" height="24.399" fill="#fff"/>
      </clipPath>
    </defs>
    <g id="Group_546" data-name="Group 546" transform="translate(-0.767)">
      <g id="Group_537" data-name="Group 537" transform="translate(0.767)" opacity="1" clip-path="url(#clip-path)">
        <path id="Path_147" data-name="Path 147" d="M22.928,12.259a7.681,7.681,0,0,0-8.846.117,7.435,7.435,0,0,0-3.034,4.734.245.245,0,0,1-.236.228c-1.149.2-2.3.409-3.444.607a1.451,1.451,0,0,1-1.594-1.032Q4.187,10.464,2.567,4.024c-.039-.157-.09-.311-.118-.47a1.176,1.176,0,0,0-1.2-.976A1.275,1.275,0,0,1,0,1.393,1.229,1.229,0,0,1,1.111.037,10.187,10.187,0,0,1,3.152.066a2.342,2.342,0,0,1,1.9,1.518c.234.556.435,1.128.615,1.7A2.562,2.562,0,0,0,8.13,5.139c2.627.006,5.255,0,7.882,0,2.113,0,4.225,0,6.338,0a2,2,0,0,1,1.945,2.466c-.279,1.175-.6,2.341-.925,3.5-.107.382-.285.745-.442,1.145" transform="translate(0 0)" fill="#fff"/>
        <path id="Path_148" data-name="Path 148" d="M368.032,363.129a5.774,5.774,0,1,1-5.769-5.788,5.768,5.768,0,0,1,5.769,5.788m-4.528-1.286c0-.085,0-.155,0-.225,0-.4.021-.793-.016-1.185a1.187,1.187,0,0,0-.819-1.081,1.232,1.232,0,0,0-1.367.324,1.278,1.278,0,0,0-.355.932c0,.405,0,.811,0,1.234h-.2c-.353,0-.706,0-1.059,0a1.277,1.277,0,1,0-.008,2.554c.275,0,.551,0,.826,0h.438c0,.216,0,.407,0,.6a7.633,7.633,0,0,0,.032.878,1.243,1.243,0,0,0,1.3,1.092,1.273,1.273,0,0,0,1.224-1.279c0-.3,0-.6,0-.9V364.4h.216c.359,0,.718,0,1.077,0a1.267,1.267,0,0,0,.943-.416,1.278,1.278,0,0,0-.9-2.132c-.435-.016-.872,0-1.334,0" transform="translate(-343.671 -344.498)" fill="#fff"/>
        <path id="Path_149" data-name="Path 149" d="M58.283,538.4a2.568,2.568,0,1,1-2.538-2.581,2.556,2.556,0,0,1,2.538,2.581" transform="translate(-51.237 -516.557)" fill="#fff"/>
      </g>
    </g>
  </svg>
  