<svg xmlns="http://www.w3.org/2000/svg" width="20.348" height="20.348" viewBox="0 0 20.348 20.348">
    <path id="Icon_awesome-smile" data-name="Icon awesome-smile" d="M10.174.563A10.174,10.174,0,1,0,20.348,10.736,10.172,10.172,0,0,0,10.174.563Zm3.282,6.892a1.313,1.313,0,1,1-1.313,1.313A1.311,1.311,0,0,1,13.456,7.454Zm-6.564,0A1.313,1.313,0,1,1,5.579,8.767,1.311,1.311,0,0,1,6.892,7.454Zm7.991,6.982a6.128,6.128,0,0,1-9.419,0A.657.657,0,0,1,6.474,13.6a4.82,4.82,0,0,0,7.4,0A.657.657,0,0,1,14.883,14.437Z" transform="translate(0 -0.563)" fill="#fff" opacity="1"/>
  </svg>
  