<svg xmlns="http://www.w3.org/2000/svg" width="46" height="44" viewBox="0 0 46 44">
  <rect id="background" width="46" height="44" rx="7" fill="#f5f4f9" opacity="0.2"/>
  <g id="notification" transform="translate(14 12)">
    <g id="Union" fill="none">
      <path d="M14,16h4.586a1.414,1.414,0,0,0,1-2.414l-1-1A2,2,0,0,1,18,11.172v-3.2a7.971,7.971,0,1,0-15.941.024l.009,3.153a2,2,0,0,1-.611,1.445l-1.029.994A1.4,1.4,0,0,0,1.4,16H6a4,4,0,0,0,8,0Zm3.525-2.354.854.854H1.641l.858-.829a3.5,3.5,0,0,0,1.068-2.528L3.559,7.99A6.471,6.471,0,1,1,16.5,7.971v3.2A3.5,3.5,0,0,0,17.525,13.646ZM12.5,16h-5a2.5,2.5,0,0,0,5,0Z" stroke="none"/>
      <path d="M 9.999998092651367 20 C 7.790858268737793 20 5.999998092651367 18.20914077758789 5.999998092651367 16 L 1.404078125953674 16 C 0.6286280751228333 16 -1.9073486328125e-06 15.37137031555176 -1.9073486328125e-06 14.59591960906982 C -1.9073486328125e-06 14.21508026123047 0.1547080874443054 13.8505802154541 0.4286381006240845 13.58600044250488 L 1.457588076591492 12.59216976165771 C 1.849288105964661 12.2138500213623 2.069778203964233 11.69217014312744 2.068138122558594 11.14760971069336 L 2.058678150177002 7.99459981918335 C 2.045428037643433 3.583189964294434 5.6178879737854 0 10.02931785583496 0 C 14.43139839172363 0 17.9999885559082 3.568589925765991 17.99999809265137 7.970670223236084 L 17.99999809265137 11.17156982421875 C 17.99999809265137 11.70201015472412 18.21070861816406 12.21070957183838 18.58577728271484 12.58578014373779 L 19.58578872680664 13.58578968048096 C 19.85099792480469 13.85099983215332 19.99999809265137 14.21070957183838 19.99999809265137 14.58578968048096 C 19.99999809265137 15.36682987213135 19.36682891845703 16 18.58578872680664 16 L 13.99999809265137 16 C 13.99999809265137 18.20914077758789 12.20913791656494 20 9.999998092651367 20 Z M 7.499998092651367 16 C 7.499998092651367 17.38071060180664 8.619288444519043 18.5 9.999998092651367 18.5 C 11.38070774078369 18.5 12.49999809265137 17.38071060180664 12.49999809265137 16 L 7.499998092651367 16 Z M 18.37867736816406 14.5 L 17.52511787414551 13.64645004272461 C 16.86874771118164 12.99007034301758 16.49999809265137 12.09982967376709 16.49999809265137 11.17156982421875 L 16.49999809265137 7.970670223236084 C 16.4999885559082 4.397019863128662 13.60296821594238 1.5 10.02931785583496 1.5 C 6.448068141937256 1.5 3.547918081283569 4.408870220184326 3.55866813659668 7.990099906921387 L 3.568128108978271 11.14311027526855 C 3.570998191833496 12.09609031677246 3.185137987136841 13.00903034210205 2.499678134918213 13.6710901260376 L 1.641468048095703 14.5 L 18.37867736816406 14.5 Z" stroke="none" fill="#fff"/>
    </g>
  </g>
</svg>
