<svg xmlns="http://www.w3.org/2000/svg" width="51.371" height="51.371" viewBox="0 0 51.371 51.371">
  <rect id="Layer_4927" data-name="Layer 4927" width="51.371" height="51.371" rx="8" fill="#406ca5"/>
  <g id="Union" transform="translate(11.846 11.051)" fill="none">
    <path d="M19.376,22.144h6.347A1.957,1.957,0,0,0,27.106,18.8l-1.384-1.384a2.768,2.768,0,0,1-.811-1.957v-4.43a11.031,11.031,0,1,0-22.063.033l.013,4.364a2.768,2.768,0,0,1-.845,2L.593,18.8a1.943,1.943,0,0,0,1.35,3.341H8.3a5.536,5.536,0,0,0,11.072,0Zm4.879-3.257,1.181,1.181H2.272L3.46,18.921a4.844,4.844,0,0,0,1.479-3.5l-.013-4.364a8.955,8.955,0,1,1,17.911-.027v4.43A4.844,4.844,0,0,0,24.255,18.886ZM17.3,22.144H10.38a3.46,3.46,0,1,0,6.92,0Z" stroke="none"/>
    <path d="M 13.83984565734863 26.67969703674316 C 16.34097480773926 26.67969703674316 18.37578582763672 24.64488792419434 18.37578582763672 22.14375686645508 L 18.37578582763672 21.14375686645508 L 25.72244644165039 21.14375686645508 C 25.85498237609863 21.14375686645508 25.98130035400391 21.1166877746582 26.09618759155273 21.06777763366699 L 1.572352886199951 21.06777763366699 C 1.686239004135132 21.11666107177734 1.811645150184631 21.14375686645508 1.943225622177124 21.14375686645508 L 9.303905487060547 21.14375686645508 L 9.303905487060547 22.14375686645508 C 9.303905487060547 24.64488792419434 11.33871555328369 26.67969703674316 13.83984565734863 26.67969703674316 M 9.379885673522949 21.14375686645508 L 18.29980659484863 21.14375686645508 L 18.29980659484863 22.14375686645508 C 18.29980659484863 24.60298728942871 16.29907608032227 26.60371780395508 13.83984565734863 26.60371780395508 C 11.380615234375 26.60371780395508 9.379885673522949 24.60298728942871 9.379885673522949 22.14375686645508 L 9.379885673522949 21.14375686645508 M 1.074728608131409 19.83366012573242 L 2.764795541763306 18.20130729675293 C 3.513655662536621 17.47800827026367 3.941365718841553 16.46603775024414 3.93824577331543 15.42489719390869 L 3.925145626068115 11.06116771697998 C 3.917145729064941 8.396377563476562 4.948915481567383 5.889527797698975 6.830385684967041 4.002397537231445 C 8.711855888366699 2.115267515182495 11.21561527252197 1.075977563858032 13.88042545318604 1.075977563858032 C 19.36979484558105 1.075977563858032 23.83573532104492 5.541907787322998 23.83574485778809 11.03128719329834 L 23.83574485778809 15.46128749847412 C 23.83574485778809 16.48804664611816 24.23558616638184 17.45334815979004 24.96161651611328 18.17936706542969 L 26.61081314086914 19.82856750488281 C 26.56329154968262 19.7105827331543 26.49197196960449 19.6022891998291 26.39931488037109 19.5096378326416 L 25.01532554626465 18.12563705444336 C 24.30365562438965 17.4139575958252 23.9117259979248 16.46773719787598 23.9117259979248 15.46128749847412 L 23.91171646118164 11.03128719329834 C 23.91171646118164 5.500017642974854 19.41169548034668 0.9999975562095642 13.88042545318604 0.9999975562095642 C 11.19527530670166 0.9999975562095642 8.672415733337402 2.047217607498169 6.776585578918457 3.948747634887695 C 4.880745887756348 5.850287437438965 3.841105699539185 8.376267433166504 3.849175691604614 11.0614070892334 L 3.86227560043335 15.42512798309326 C 3.865335702896118 16.44569778442383 3.446075677871704 17.43764686584473 2.712005615234375 18.14665794372559 L 1.287945628166199 19.52209663391113 C 1.196059703826904 19.6108455657959 1.123855829238892 19.71736717224121 1.074728608131409 19.83366012573242 M 13.83984565734863 27.67969703674316 C 10.78243541717529 27.67969703674316 8.303905487060547 25.20116806030273 8.303905487060547 22.14375686645508 L 1.943225622177124 22.14375686645508 C 0.8700156807899475 22.14375686645508 -4.34265120929922e-06 21.27374839782715 -4.34265120929922e-06 20.20053672790527 C 5.657348538079532e-06 19.67345809936523 0.2141056507825851 19.16898727416992 0.5932256579399109 18.80281829833984 L 2.017285585403442 17.42737770080566 C 2.559385776519775 16.90378761291504 2.864535570144653 16.18178749084473 2.86227560043335 15.42812728881836 L 2.849175691604614 11.06440734863281 C 2.830845594406128 4.95907735824585 7.775065422058105 -2.435302803860395e-06 13.88042545318604 -2.435302803860395e-06 C 19.97283554077148 -2.435302803860395e-06 24.91171646118164 4.938877582550049 24.91171646118164 11.03128719329834 L 24.9117259979248 15.46128749847412 C 24.9117259979248 16.19539833068848 25.20334625244141 16.89943695068359 25.72243499755859 17.41853713989258 L 27.10642623901367 18.80252838134766 C 27.47348594665527 19.16957664489746 27.67969512939453 19.66740798950195 27.67969512939453 20.18650817871094 C 27.67969512939453 21.2674674987793 26.80340576171875 22.14375686645508 25.72244644165039 22.14375686645508 L 19.37578582763672 22.14375686645508 C 19.37578582763672 25.20116806030273 16.89726638793945 27.67969703674316 13.83984565734863 27.67969703674316 Z M 10.37988567352295 22.14375686645508 C 10.37988567352295 24.05463790893555 11.92896556854248 25.60371780395508 13.83984565734863 25.60371780395508 C 15.75073528289795 25.60371780395508 17.29980659484863 24.05463790893555 17.29980659484863 22.14375686645508 L 10.37988567352295 22.14375686645508 Z M 25.43580627441406 20.06777763366699 L 24.2545051574707 18.88647842407227 C 23.3460865020752 17.97805786132812 22.83574485778809 16.7459774017334 22.83574485778809 15.46128749847412 L 22.83574485778809 11.03128719329834 C 22.83573532104492 6.085407733917236 18.8263053894043 2.075977563858032 13.88042545318604 2.075977563858032 C 8.924036026000977 2.075977563858032 4.910265445709229 6.101807594299316 4.925145626068115 11.05816745758057 L 4.93824577331543 15.42189788818359 C 4.942195892333984 16.74080848693848 4.408175468444824 18.00430679321289 3.459515571594238 18.92058753967285 L 2.27176570892334 20.06777763366699 L 25.43580627441406 20.06777763366699 Z" stroke="none" fill="#fff"/>
  </g>
</svg>
