<svg xmlns="http://www.w3.org/2000/svg" width="134" height="97.308" viewBox="0 0 134 97.308">
  <g id="Group_79" data-name="Group 79" transform="translate(-227.5 -343.844)">
    <path id="Path_134" data-name="Path 134" d="M361.27,391.91c-.46,3.27-.76,6.56-1.54,9.78-.87,3.67-1.87,7.3-4.22,10.36a5.614,5.614,0,0,1-4.98,2.56c-2.38-.14-8.33.22-12.17.19-1.16.46-3.99-1.47-7.29-3.67-2.54-1.53-4.91-1.75-8.51-1.35a14.98,14.98,0,0,0-9.09,4.3,2.008,2.008,0,0,1-1.55.56c-.58,0-1.16-.06-1.75-.06l-38.6.05a5.631,5.631,0,0,1-4.38-1.68,13.216,13.216,0,0,0-8.69-3.33,14.674,14.674,0,0,0-11.39,4.53c-.22.23-.37.5-.86.49-2.81-.08-5.63-.06-8.45-.06a4.382,4.382,0,0,1-2.67-.94c-2.05-1.5-3.08-3.7-3.94-5.97-2.49-6.6-3.28-13.52-3.48-20.53-.01-.33.18-.73-.21-.99v-6.72a.318.318,0,0,0,.21-.34,69.762,69.762,0,0,1,1.3-13.21,34.938,34.938,0,0,1,3.72-11.24,7.176,7.176,0,0,1,6.82-3.9c19.8.053,112.05.12,112.4.21,2.57.6,3.83,2.57,4.9,4.62,2.73,5.24,3.54,10.97,4.24,16.73a14.122,14.122,0,0,0,.4,3.66l.01,13.67C361.02,390.35,361.38,391.15,361.27,391.91Z" fill="#ebf2ff"/>
    <path id="Path_49" data-name="Path 49" d="M255.929,441.151c-.2-.436-.651-.392-1.008-.468a13.03,13.03,0,1,1,5.928,0c-.423.1-.941,0-1.231.469Zm8.556-13.063a6.624,6.624,0,1,0-13.245-.245h0a6.624,6.624,0,1,0,13.242.384c0-.046,0-.093,0-.139Z" fill="#406ca5"/>
    <path id="Path_51" data-name="Path 51" d="M373.413,441.151c-.505-.483-1.192-.4-1.8-.555a13.015,13.015,0,1,1,5.258.285c-.233.041-.527-.056-.641.27Zm8.154-13.1a6.673,6.673,0,1,0,0,.127c0-.042,0-.085,0-.127Z" transform="translate(-50)" fill="#406ca5"/>
    <path id="Path_53" data-name="Path 53" d="M302.206,343.845c2.181,1.112,1.7,3.132,1.693,4.984,0,.519-.4.536-.766.541-1.012.012-2.025.008-3.037.008-6.654,0-13.307-.02-19.961.02-1.032.006-1.5-.277-1.319-1.336a1.181,1.181,0,0,0,0-.325c-.191-1.625.1-3.039,1.687-3.893Z" fill="#406ca5"/>
    <path id="Path_56" data-name="Path 56" d="M245.34,419.515a15.707,15.707,0,0,0-2.488,9.874,3.586,3.586,0,0,1,.025.647c-.035.359.478.8-.021,1.051a1.436,1.436,0,0,1-1.342-.176,2.108,2.108,0,0,1-1.169-1.922c0-2.414-.014-4.828,0-7.242a2.257,2.257,0,0,1,2.079-2.219c.889-.064,1.786-.013,2.911-.013Z" fill="#8e9397"/>
    <path id="Path_56-2" data-name="Path 56" d="M240.339,419.515a15.708,15.708,0,0,1,2.488,9.874,3.586,3.586,0,0,0-.025.647c.035.359-.478.8.021,1.051a1.436,1.436,0,0,0,1.342-.176,2.108,2.108,0,0,0,1.169-1.922c0-2.414.014-4.828,0-7.242a2.257,2.257,0,0,0-2.079-2.219c-.889-.064-1.786-.013-2.911-.013Z" transform="translate(31.425 0)" fill="#8e9397"/>
    <path id="Path_57" data-name="Path 57" d="M361.611,419.51a18.949,18.949,0,0,0-2.255,5.751,16.468,16.468,0,0,0-.057,5.168c.093.658-.071.745-.618.714a2.154,2.154,0,0,1-1.99-2.057q-.051-3.682,0-7.365a2.265,2.265,0,0,1,2.237-2.2c.5-.034,1.011-.01,1.516-.011h1.167Z" transform="translate(-50)" fill="#8e9397"/>
    <path id="Path_59" data-name="Path 59" d="M429.749,425.438c0,1.117.021,2.235-.007,3.352a2.324,2.324,0,0,1-1.963,2.338c-.552.038-.8-.107-.7-.725a14.619,14.619,0,0,0-1.89-10.057c-.384-.649-.282-.81.482-.844,3.128-.141,4.3.455,4.081,3.991-.039.646-.005,1.3-.006,1.946Z" transform="translate(-86.723)" fill="#8e9397"/>
  </g>
</svg>
