<svg xmlns="http://www.w3.org/2000/svg" width="43" height="43" viewBox="0 0 43 43">
  <circle id="Ellipse_1_copy" data-name="Ellipse 1 copy" cx="21.5" cy="21.5" r="21.5" fill="#d3d3e5"/>
  <path id="Icon_awesome-unlock-alt" data-name="Icon awesome-unlock-alt" d="M17.7,11.33H6.727V6.767a3.187,3.187,0,1,1,6.373-.04v.708A1.06,1.06,0,0,0,14.162,8.5h1.416A1.06,1.06,0,0,0,16.64,7.435V6.727a6.727,6.727,0,1,0-13.454.066V11.33H2.124A2.125,2.125,0,0,0,0,13.454v7.081a2.125,2.125,0,0,0,2.124,2.124H17.7a2.125,2.125,0,0,0,2.124-2.124V13.454A2.125,2.125,0,0,0,17.7,11.33Zm-6.019,6.727a1.77,1.77,0,0,1-3.541,0V15.932a1.77,1.77,0,0,1,3.541,0Z" transform="translate(11.586 8.67)" fill="#afb1b8"/>
</svg>
