<svg xmlns="http://www.w3.org/2000/svg" width="13.065" height="12.789" viewBox="0 0 13.065 12.789">
  <path id="Icon_metro-tools" data-name="Icon metro-tools" d="M18.018,7.8a3.253,3.253,0,0,1-4.611,4.081l-.9.983.642.645.384-.384a.5.5,0,0,1,.71,0l3.111,3.143a.5.5,0,0,1,0,.71l-1.42,1.42a.5.5,0,0,1-.71,0l-3.111-3.143a.5.5,0,0,1,0-.71l.35-.35-.612-.613-4.3,4.7a1,1,0,0,1-1.42,0l-.355-.355a1,1,0,0,1,0-1.42l4.9-4.105L7.421,9.135H6.392L5.2,7.221l.958-.959,1.957,1.2L8.13,8.466l3.293,3.306.958-.8a3.256,3.256,0,0,1,3.858-4.944l-2.11,2.08L15.9,9.882,18.018,7.8ZM6.952,17a.5.5,0,1,0,0,.711A.5.5,0,0,0,6.952,17Z" transform="translate(-5.203 -5.785)" fill="#00649e"/>
</svg>
