<svg xmlns="http://www.w3.org/2000/svg" width="62.7" height="61.864" viewBox="0 0 62.7 61.864">
  <ellipse id="Ellipse_21" data-name="Ellipse 21" cx="31.35" cy="30.932" rx="31.35" ry="30.932" fill="#e8eef6"/>
  <g id="Group_628" data-name="Group 628" transform="translate(16.269 10.245)">
    <g id="Group_629" data-name="Group 629">
      <path id="Path_420" data-name="Path 420" d="M.061,106.249c0-2.56-.16-5.066.038-7.544a7.13,7.13,0,0,1,7.068-6.5c5.327-.084,10.658-.093,15.985,0a6.983,6.983,0,0,1,6.982,7.079c.054,2.284.01,4.57.01,6.939H22.365c.994-3.856-.034-7.014-3.587-9A7.222,7.222,0,0,0,10.5,97.8c-2.848,2.117-3.6,5.013-2.611,8.446Z" transform="translate(0 -72.386)" fill="#406ca5"/>
      <path id="Path_421" data-name="Path 421" d="M39.726,16.779a8.39,8.39,0,1,1,8.417-8.373,8.428,8.428,0,0,1-8.417,8.373" transform="translate(-24.581 0)" fill="#406ca5"/>
      <path id="Path_422" data-name="Path 422" d="M48.26,129.733a6.087,6.087,0,1,1,.039-12.175,6.174,6.174,0,0,1,6.091,6.076,6.061,6.061,0,0,1-6.13,6.1M47.4,126.1l3.967-4.1-.892-.841-2.889,3.266L45.9,122.832l-.786.824L47.4,126.1" transform="translate(-33.141 -92.358)" fill="#406ca5"/>
    </g>
  </g>
</svg>
