<svg xmlns="http://www.w3.org/2000/svg" xmlns:xlink="http://www.w3.org/1999/xlink" width="45.863" height="45.893" viewBox="0 0 45.863 45.893">
  <defs>
    <clipPath id="clip-path">
      <rect id="Rectangle_351" data-name="Rectangle 351" width="45.863" height="45.893" transform="translate(0 0)" fill="none"/>
    </clipPath>
  </defs>
  <g id="Group_863" data-name="Group 863" transform="translate(0 -0.003)">
    <g id="Group_862" data-name="Group 862" transform="translate(0 0.003)" clip-path="url(#clip-path)">
      <path id="Path_434" data-name="Path 434" d="M19.181.294,22.192,0c.059.056.131.029.2.027.687-.014,1.374,0,2.059.042A22.936,22.936,0,0,1,45.207,17.506c.149.606.261,1.222.39,1.833l.223,2.351c.069.122.015.252.021.377a21.8,21.8,0,0,1-.129,3.531,7.408,7.408,0,0,1-.183,1.167.432.432,0,0,1-.124-.047c-.462-.372-.924-.745-1.381-1.123s-.906-.767-1.364-1.144c-.611-.5-1.23-.995-1.84-1.5-.458-.377-.906-.766-1.365-1.143-.611-.5-1.229-.995-1.84-1.5-.452-.372-.9-.755-1.347-1.129-.381-.315-.768-.622-1.15-.936-.429-.354-.852-.714-1.282-1.067-.523-.429-1.048-.857-1.579-1.276-.193-.152-.343-.369-.606-.421h0a.126.126,0,0,0-.129-.129c-.131-.078-.182-.24-.326-.3-.346-.287-.691-.576-1.039-.86a3.454,3.454,0,0,0-.655-.487,2.668,2.668,0,0,0-.638-.437q-3.56-2.233-7.123-4.462c-.048-.03-.093-.085-.176-.044l.024.245c.073.76.139,1.522.225,2.281.025.216-.042.272-.245.29a9.616,9.616,0,0,0-2.34.528A11.481,11.481,0,0,0,11.8,25.624a11.149,11.149,0,0,0,2.454,4.783,1.335,1.335,0,0,0,.453.437.3.3,0,0,0,.1.174c.309.283.609.577.928.848.53.449,1.072.883,1.608,1.324L30.753,44.241a.384.384,0,0,1,.159.188.426.426,0,0,1-.076.048,23.391,23.391,0,0,1-3.783,1.03,1.689,1.689,0,0,0-.633.141l-2.555.247c-.066-.062-.146-.028-.219-.026A22.922,22.922,0,0,1,6.627,39.06,22.533,22.533,0,0,1,1.75,31.706,19.957,19.957,0,0,1,.373,26.83c-.011-.082-.006-.173-.108-.207L0,23.886c.069-.081.03-.176.027-.263A22.9,22.9,0,0,1,9.359,4.487,22.642,22.642,0,0,1,18.233.515a3.423,3.423,0,0,0,.948-.221" transform="translate(4.8 -3.957) rotate(11)" fill="#70ceef"/>
      <path id="Path_435" data-name="Path 435" d="M440.551,394.958a14.382,14.382,0,0,1-.5,2.324,22.965,22.965,0,0,1-13.627,15.168,1.585,1.585,0,0,1-.493.173.383.383,0,0,0-.159-.188l-13.413-11.051c-.536-.442-1.079-.875-1.608-1.324-.319-.271-.619-.565-.928-.848a.3.3,0,0,1-.1-.175c.053-.055.1-.112.159-.164,1.264-1.184,2.526-2.37,3.8-3.546.156-.144.149-.221.015-.374a5.616,5.616,0,0,1-1.419-4.507,5.747,5.747,0,0,1,4.9-4.98c.188-.024,5.089-1.449,7.355-3.568a3.454,3.454,0,0,1,.655.487c.349.284.693.573,1.039.86-.038.037-.076.076-.115.112q-1.94,1.815-3.882,3.628c-.123.115-.147.179-.02.321a5.617,5.617,0,0,1,1.482,3.929,5.736,5.736,0,0,1-4.945,5.589c-.181.022-5.084,1.454-7.369,3.592l7.97,4.988-.03-.31c-.074-.768-.143-1.537-.228-2.3-.02-.185.018-.246.212-.268a10.268,10.268,0,0,0,3.589-1.033,11.252,11.252,0,0,0,6.523-10.072,10.878,10.878,0,0,0-1.509-5.982,16.937,16.937,0,0,0-1.227-1.761c.263.052.413.269.606.421.532.419,1.056.847,1.579,1.276.43.352.853.713,1.282,1.067.381.314.769.621,1.15.936.451.374.895.757,1.347,1.129.611.5,1.229.995,1.84,1.5.458.377.906.766,1.365,1.143.611.5,1.23.995,1.84,1.5.458.377.907.766,1.364,1.144s.919.751,1.381,1.123a.432.432,0,0,0,.124.047" transform="translate(-312.709 -440.759) rotate(11)" fill="#4295c5"/>
      <path id="Path_436" data-name="Path 436" d="M337.675,248.713l-4.278,4a5.754,5.754,0,0,0-2.945-.434.486.486,0,0,0-.133,0,5.747,5.747,0,0,0-4.9,4.98,5.636,5.636,0,0,0,.549,3.235l.009.017a6.079,6.079,0,0,0,.861,1.255.61.61,0,0,1,.073.1c.055.1.031.166-.088.276q-1.907,1.764-3.8,3.546c-.055.052-.106.109-.159.164a1.334,1.334,0,0,1-.453-.437,11.405,11.405,0,0,1-1.48-12.723,11.273,11.273,0,0,1,6.462-5.576,9.6,9.6,0,0,1,2.34-.528c.2-.018.27-.075.245-.29-.087-.759-.152-1.52-.225-2.281-.008-.083-.016-.165-.024-.244.084-.041.128.014.177.044q3.563,2.23,7.123,4.462a2.668,2.668,0,0,1,.638.437" transform="translate(-252.866 -293.447) rotate(11)" fill="#fdfefe"/>
      <path id="Path_437" data-name="Path 437" d="M470.959,419.876h0a16.943,16.943,0,0,1,1.227,1.761,10.876,10.876,0,0,1,1.509,5.982,11.252,11.252,0,0,1-6.523,10.072,10.264,10.264,0,0,1-3.589,1.033c-.194.022-.232.083-.212.268.085.767.153,1.535.228,2.3l.03.31-7.97-4.988,4.293-4.016a5.751,5.751,0,0,0,3.712.307l.071-.018.067-.018c.045-.012.089-.025.133-.039a5.24,5.24,0,0,0,.59-.217l.064-.028a5.774,5.774,0,0,0,3.383-5.151,5.618,5.618,0,0,0-1.482-3.929.52.52,0,0,1-.049-.063c-.068-.1-.035-.162.069-.258q1.945-1.81,3.882-3.628c.039-.036.077-.075.115-.112.143.064.195.226.326.3.035.051.065.107.129.129" transform="translate(-349.272 -484.74) rotate(11)" fill="#fdfefe"/>
      <path id="Path_438" data-name="Path 438" d="M878.672,428.036a.277.277,0,0,1-.129-.129.126.126,0,0,1,.129.129" transform="translate(-847.017 -412.552)" fill="#328cbe"/>
      <path id="Path_439" data-name="Path 439" d="M512.5,506.972a4.892,4.892,0,1,1-5.9-3.607l.011,0a4.877,4.877,0,0,1,5.888,3.592l0,.018m-1.03.257a3.832,3.832,0,1,0-2.83,4.622h0a3.828,3.828,0,0,0,2.827-4.616v0" transform="translate(-484.81 -485.167)" fill="#fff"/>
      <path id="Path_440" data-name="Path 440" d="M551.1,549.03a3.254,3.254,0,1,1-.019,0l.019,0m.927,3.525c.035-.034.166-.1.186-.19a.736.736,0,0,1,.386-.443c.32-.221.638-.445.955-.67.123-.087.254-.186.137-.354s-.256-.067-.376.017c-.382.267-.757.548-1.148.8a.445.445,0,0,1-.628-.049l-.009-.011q-.682-.741-1.389-1.46a.821.821,0,0,0-.284-.118.786.786,0,0,0,.1.291c.455.494.926.973,1.38,1.468a.66.66,0,0,1,.143.346.419.419,0,0,0,.55.37" transform="translate(-528.941 -529.237)" fill="#fff"/>
      <path id="Path_441" data-name="Path 441" d="M479.843,635.559a5.722,5.722,0,0,1-.157-1.556,6.078,6.078,0,0,0,.158,1.513.609.609,0,0,1,.018.121l-.019-.078" transform="translate(-462.469 -611.253)" fill="#fff"/>
      <path id="Path_442" data-name="Path 442" d="M633.06,599.828a5.733,5.733,0,0,1-6.01,7.058,5.773,5.773,0,0,0,5.429-2.915,5.618,5.618,0,0,0,.571-4.161.527.527,0,0,1-.013-.079l.024.1" transform="translate(-604.549 -578.211)" fill="#fff"/>
    </g>
  </g>
</svg>
