<svg xmlns="http://www.w3.org/2000/svg" width="49" height="50" viewBox="0 0 49 50">
  <g id="Group_823" data-name="Group 823" transform="translate(-0.494 -0.017)">
    <ellipse id="Ellipse_25" data-name="Ellipse 25" cx="24.5" cy="25" rx="24.5" ry="25" transform="translate(0.494 0.017)" fill="#58a989"/>
    <path id="Icon_awesome-coins" data-name="Icon awesome-coins" d="M0,22.561v2.377C0,26.9,4.787,28.5,10.688,28.5s10.688-1.6,10.688-3.563V22.561c-2.3,1.62-6.5,2.377-10.688,2.377S2.3,24.181,0,22.561ZM17.813,7.125c5.9,0,10.688-1.6,10.688-3.563S23.713,0,17.813,0,7.125,1.6,7.125,3.563,11.912,7.125,17.813,7.125ZM0,16.722v2.872c0,1.965,4.787,3.563,10.688,3.563s10.688-1.6,10.688-3.563V16.722c-2.3,1.893-6.507,2.872-10.688,2.872S2.3,18.614,0,16.722Zm23.156.612c3.19-.618,5.344-1.765,5.344-3.084V11.873a13.669,13.669,0,0,1-5.344,1.92ZM10.688,8.906C4.787,8.906,0,10.9,0,13.359s4.787,4.453,10.688,4.453,10.688-1.993,10.688-4.453S16.588,8.906,10.688,8.906ZM22.895,12.04c3.34-.6,5.605-1.781,5.605-3.134V6.529c-1.976,1.4-5.372,2.149-8.945,2.327A6.234,6.234,0,0,1,22.895,12.04Z" transform="translate(10.443 10.372)" fill="#fff"/>
  </g>
</svg>
