<svg xmlns="http://www.w3.org/2000/svg" width="31.868" height="25.196" viewBox="0 0 31.868 25.196">
  <path id="eye-slash-solid" d="M15.936,19.681A7.109,7.109,0,0,1,8.82,13.13L3.6,9.141a16.386,16.386,0,0,0-1.828,2.736,1.575,1.575,0,0,0,0,1.436,15.99,15.99,0,0,0,14.167,8.73,15.64,15.64,0,0,0,3.878-.515L17.23,19.552A7.259,7.259,0,0,1,15.936,19.681ZM31.562,22.54l-5.5-4.2A16.335,16.335,0,0,0,30.1,13.312a1.575,1.575,0,0,0,0-1.436,15.99,15.99,0,0,0-14.167-8.73A15.488,15.488,0,0,0,8.6,5L2.265.163A.8.8,0,0,0,1.147.3L.169,1.544a.781.781,0,0,0,.14,1.1l29.3,22.377a.8.8,0,0,0,1.118-.138l.978-1.244A.781.781,0,0,0,31.562,22.54Zm-9.148-6.988-1.957-1.495a4.624,4.624,0,0,0-1.6-5.236,4.763,4.763,0,0,0-4.178-.764,2.327,2.327,0,0,1,.464,1.388,2.27,2.27,0,0,1-.077.492L11.4,7.138a7.137,7.137,0,0,1,4.539-1.629,7.21,7.21,0,0,1,5.071,2.074,7.04,7.04,0,0,1,2.1,5.012,6.851,6.851,0,0,1-.692,2.958Z" transform="translate(-0.001 0.003)" fill="#d8d8d8"/>
</svg>
