<svg xmlns="http://www.w3.org/2000/svg" xmlns:xlink="http://www.w3.org/1999/xlink" width="36.748" height="36.041" viewBox="0 0 36.748 36.041">
  <defs>
    <clipPath id="clip-path">
      <rect id="Rectangle_10" data-name="Rectangle 10" width="36.748" height="36.041" fill="#4f46ba"/>
    </clipPath>
  </defs>
  <g id="Group_36" data-name="Group 36" clip-path="url(#clip-path)">
    <path id="Path_21" data-name="Path 21" d="M31.553,3.737c-1.437.359-2.739.7-4.046,1.009-1.338.321-2.359-.619-2-1.832a1.376,1.376,0,0,1,1.025-.992C29.041,1.287,31.552.646,34.074.056a1.515,1.515,0,0,1,1.944,1.526q.333,3.565.716,7.125a1.586,1.586,0,0,1-1.359,1.941c-.9.071-1.539-.593-1.623-1.653-.067-.847-.174-1.691-.264-2.545-.254-.028-.3.2-.39.335a40.966,40.966,0,0,1-17.575,13.6,38.409,38.409,0,0,1-9.957,2.831,20.321,20.321,0,0,1-4.111.177,1.472,1.472,0,0,1,.035-2.944c6.277.066,11.936-2.023,17.32-5A35.275,35.275,0,0,0,31.3,4.12l.255-.382" transform="translate(0 0)" fill="#4f46ba"/>
    <path id="Path_22" data-name="Path 22" d="M243.623,132.423q0,4.427,0,8.854c0,1.117-.363,1.484-1.495,1.491-1.291.009-2.582.013-3.873,0-1-.01-1.384-.412-1.384-1.412q0-8.979,0-17.958c0-.994.4-1.393,1.4-1.395q1.968,0,3.936,0c1.028,0,1.416.4,1.417,1.442q0,4.489,0,8.979" transform="translate(-207.236 -106.738)" fill="#4f46ba"/>
    <path id="Path_23" data-name="Path 23" d="M165.643,181.935c0,1.892,0,3.784,0,5.676,0,.96-.391,1.363-1.357,1.374q-2.031.023-4.062,0c-.925-.01-1.33-.428-1.331-1.339q-.005-5.738,0-11.477c0-.922.414-1.335,1.324-1.338q2.062-.006,4.125,0a1.148,1.148,0,0,1,1.3,1.3c.007,1.934,0,3.867,0,5.8" transform="translate(-139.011 -152.958)" fill="#4f46ba"/>
    <path id="Path_24" data-name="Path 24" d="M80.916,212.933c0-1.226,0-2.451,0-3.677,0-.934.434-1.364,1.379-1.368q2-.01,4,0c.942.005,1.372.433,1.374,1.372q.008,3.646,0,7.292c0,.923-.4,1.337-1.316,1.348-1.374.016-2.748.019-4.121,0-.916-.011-1.309-.433-1.312-1.356,0-1.2,0-2.41,0-3.615" transform="translate(-70.791 -181.876)" fill="#4f46ba"/>
    <path id="Path_25" data-name="Path 25" d="M9.69,223.978c0,1,.006,2,0,2.993a1.135,1.135,0,0,1-1.252,1.288q-2.124.029-4.249,0a1.135,1.135,0,0,1-1.248-1.293q-.01-2.962,0-5.924c0-.89.416-1.311,1.284-1.315q2.093-.01,4.186,0a1.133,1.133,0,0,1,1.278,1.258c.01,1,0,2,0,2.993" transform="translate(-2.567 -192.234)" fill="#4f46ba"/>
  </g>
</svg>
