<svg xmlns="http://www.w3.org/2000/svg" width="9.695" height="12.726" viewBox="0 0 9.695 12.726">
  <path id="Icon_metro-flow-parallel" data-name="Icon metro-flow-parallel" d="M11.759,5.828A1.818,1.818,0,1,0,9.184,7.476V13.27a1.817,1.817,0,1,0,1.515,0V7.476a1.815,1.815,0,0,0,1.06-1.648Zm-.77,9.089a1.049,1.049,0,1,1-1.048-1.049A1.049,1.049,0,0,1,10.99,14.918ZM9.941,6.877A1.049,1.049,0,1,1,10.99,5.828,1.049,1.049,0,0,1,9.941,6.877Zm6.817,6.392V7.476a1.818,1.818,0,1,0-1.515,0V13.27a1.817,1.817,0,1,0,1.515,0ZM14.953,5.828A1.049,1.049,0,1,1,16,6.877a1.048,1.048,0,0,1-1.049-1.049ZM16,15.967a1.049,1.049,0,1,1,1.048-1.049A1.049,1.049,0,0,1,16,15.967Z" transform="translate(-8.123 -4.01)" fill="#00649e"/>
</svg>
