<svg id="Group_312" data-name="Group 312" xmlns="http://www.w3.org/2000/svg" xmlns:xlink="http://www.w3.org/1999/xlink" width="13.511" height="11.487" viewBox="0 0 13.511 11.487">
  <defs>
    <clipPath id="clip-path">
      <rect id="Rectangle_171" data-name="Rectangle 171" width="13.511" height="11.487" fill="#ffb300"/>
    </clipPath>
  </defs>
  <g id="Group_306" data-name="Group 306" clip-path="url(#clip-path)">
    <path id="Path_100" data-name="Path 100" d="M7.2,9.2H.525a.525.525,0,0,1,0-1.05H7.2a.525.525,0,1,1,0,1.05" transform="translate(0 -7.026)" fill="#ffb300"/>
    <path id="Path_101" data-name="Path 101" d="M2.167,38.936H.525a.525.525,0,1,1,0-1.049H2.167a.525.525,0,1,1,0,1.049" transform="translate(0 -32.675)" fill="#ffb300"/>
    <path id="Path_102" data-name="Path 102" d="M37.258,31.178a.526.526,0,0,1-.524.525H29.312v.2a.889.889,0,0,1-1.777,0V30.387a.889.889,0,0,1,1.777,0v.267h7.422a.524.524,0,0,1,.524.524" transform="translate(-23.747 -25.442)" fill="#ffb300"/>
    <path id="Path_103" data-name="Path 103" d="M69.2,1.649a.526.526,0,0,1-.525.524H66.441v.235a.888.888,0,1,1-1.776,0V.889a.888.888,0,1,1,1.776,0v.235h2.234a.525.525,0,0,1,.525.525" transform="translate(-55.77)" fill="#ffb300"/>
    <path id="Path_104" data-name="Path 104" d="M6.187,68.871H.488A.488.488,0,0,1,0,68.383v-.074a.488.488,0,0,1,.488-.488h5.7a.488.488,0,0,1,.488.488v.074a.488.488,0,0,1-.488.488" transform="translate(0 -58.491)" fill="#ffb300"/>
    <path id="Path_105" data-name="Path 105" d="M62.068,61.2a.526.526,0,0,1-.525.524H58.171v.219a.888.888,0,1,1-1.776,0v-1.52a.888.888,0,1,1,1.776,0v.252h3.372a.525.525,0,0,1,.525.525" transform="translate(-48.637 -51.341)" fill="#ffb300"/>
  </g>
</svg>
