<svg id="Group_25" data-name="Group 25" xmlns="http://www.w3.org/2000/svg" xmlns:xlink="http://www.w3.org/1999/xlink" width="11.951" height="11.949" viewBox="0 0 11.951 11.949">
  <defs>
    <clipPath id="clip-path">
      <rect id="Rectangle_9" data-name="Rectangle 9" width="11.951" height="11.949" fill="#a0a5a8"/>
    </clipPath>
  </defs>
  <g id="Group_24" data-name="Group 24" clip-path="url(#clip-path)">
    <path id="Path_20" data-name="Path 20" d="M5.986,0A5.974,5.974,0,1,1,0,5.866,5.971,5.971,0,0,1,5.986,0M4.775,6.6c.216-.033.448-.053.672-.105A2.107,2.107,0,0,0,7.256,4.683c.013-.087.059-.1.135-.1.329,0,.657,0,.986,0h.139V4H7.259a1.844,1.844,0,0,0-.645-1.183h1.9V2.246h-4.9c0,.215,0,.416,0,.617,0,.1.032.133.131.13.238-.005.475,0,.713,0a2.5,2.5,0,0,1,1.163.23A1.119,1.119,0,0,1,6.238,4H3.628v.585H6.275a.872.872,0,0,1-.005.092,1.344,1.344,0,0,1-.887,1.048,3.045,3.045,0,0,1-1.189.188c-.185,0-.371,0-.574,0,0,.239,0,.461,0,.681a.223.223,0,0,0,.068.113Q5.045,8.267,6.4,9.818a.312.312,0,0,0,.2.1c.283.01.566,0,.849,0,.037,0,.074-.008.16-.017L4.775,6.6" transform="translate(0 0)" fill="#a0a5a8"/>
  </g>
</svg>
