<svg id="Group_281" data-name="Group 281" xmlns="http://www.w3.org/2000/svg" xmlns:xlink="http://www.w3.org/1999/xlink" width="12.922" height="13" viewBox="0 0 12.922 13">
  <defs>
    <clipPath id="clip-path">
      <rect id="Rectangle_155" data-name="Rectangle 155" width="12.922" height="13" fill="#124483"/>
    </clipPath>
  </defs>
  <g id="Group_276" data-name="Group 276" clip-path="url(#clip-path)">
    <path id="Path_108" data-name="Path 108" d="M5.924,13a2.183,2.183,0,0,0-.479-.073A6.4,6.4,0,0,1,1.2,10.377,6.459,6.459,0,0,1,.014,7.642a.291.291,0,0,1,.263-.381c.212-.039.424-.073.636-.109a.279.279,0,0,1,.364.237,6.969,6.969,0,0,0,.212.806,5.167,5.167,0,0,0,1.772,2.447,5.109,5.109,0,0,0,2.661,1.041,5.2,5.2,0,0,0,5.086-2.72,4.968,4.968,0,0,0,.573-1.77,5.121,5.121,0,0,0-1.145-4.01A4.969,4.969,0,0,0,7.22,1.354a5.19,5.19,0,0,0-4.733,1.7.658.658,0,0,0,.328-.021c.1-.009.191-.036.287-.047a.272.272,0,0,1,.331.236c.046.227.088.456.124.685a.283.283,0,0,1-.248.349Q2.057,4.483.8,4.7A.283.283,0,0,1,.442,4.44Q.226,3.226.012,2.011c-.047-.268.04-.387.308-.432q.275-.046.548-.1a.3.3,0,0,1,.41.286c.035.194.071.389.107.585.053-.01.073-.057.1-.09A6.485,6.485,0,0,1,7.353.07a6.374,6.374,0,0,1,3.091,1.324,6.283,6.283,0,0,1,2.3,3.64,6.357,6.357,0,0,1-1.2,5.452,6.354,6.354,0,0,1-3.4,2.281,6.286,6.286,0,0,1-1.157.208c-.026,0-.061-.015-.077.024Z" transform="translate(0 0.001)" fill="#124483"/>
    <path id="Path_109" data-name="Path 109" d="M125.612,51.014q0-1.041,0-2.082c0-.265.093-.358.359-.358.2,0,.406,0,.609,0a.288.288,0,0,1,.322.32c0,.22,0,.44,0,.66,0,.838,0,1.676,0,2.513,0,.11.032.129.134.129.8,0,1.6,0,2.4,0,.305,0,.393.088.393.392q0,.273,0,.546c0,.255-.1.35-.354.351h-3.364c-.059,0-.118,0-.178,0a.284.284,0,0,1-.318-.323c0-.533,0-1.066,0-1.6v-.546" transform="translate(-119.84 -46.342)" fill="#124483"/>
  </g>
</svg>
