<svg xmlns="http://www.w3.org/2000/svg" width="49" height="49" viewBox="0 0 49 49">
  <g id="Group_645" data-name="Group 645" transform="translate(-1843 -127)">
    <g id="Group_646" data-name="Group 646">
      <g id="Rectangle_306" data-name="Rectangle 306" transform="translate(1843 127)" fill="#fff" stroke="#c6c6c6" stroke-width="1">
        <rect width="49" height="49" rx="7" stroke="none"/>
        <rect x="0.5" y="0.5" width="48" height="48" rx="6.5" fill="none"/>
      </g>
      <g id="Icon_feather-download" data-name="Icon feather-download" transform="translate(1857.642 140.771)">
        <path id="Path_425" data-name="Path 425" d="M15.026,26.845H5.491A1.994,1.994,0,0,1,3.5,24.854V22.129a.629.629,0,1,1,1.259,0v2.724a.733.733,0,0,0,.733.733h9.535a.734.734,0,0,0,.733-.733V22.129a.629.629,0,1,1,1.259,0v2.724A1.994,1.994,0,0,1,15.026,26.845Z" transform="translate(0 -9.827)" fill="#406ca5"/>
        <path id="Path_426" data-name="Path 426" d="M13.535,18.664a.627.627,0,0,1-.445-.184L9.684,15.074a.629.629,0,0,1,.89-.89l2.96,2.96,2.96-2.96a.629.629,0,0,1,.89.89L13.98,18.48A.627.627,0,0,1,13.535,18.664Z" transform="translate(-3.276 -5.733)" fill="#406ca5"/>
        <path id="Path_427" data-name="Path 427" d="M17.629,12.931A.629.629,0,0,1,17,12.3V4.129a.629.629,0,0,1,1.259,0V12.3A.629.629,0,0,1,17.629,12.931Z" transform="translate(-7.371)" fill="#406ca5"/>
      </g>
    </g>
  </g>
</svg>
