<svg xmlns="http://www.w3.org/2000/svg" width="74.526" height="68.25" viewBox="0 0 74.526 68.25">
  <ellipse id="Ellipse_21" data-name="Ellipse 21" cx="37.263" cy="34.125" rx="37.263" ry="34.125" fill="#6279a5"/>
  <g id="Group_260" data-name="Group 260" transform="translate(23.033 24.368)">
    <path id="Path" d="M23.022,13.616a1.862,1.862,0,0,1-.562,1.368L15,22.46a1.946,1.946,0,0,1-1.383.562,1.862,1.862,0,0,1-1.368-.562L1.383,11.579A4.529,4.529,0,0,1,.4,10.045,4.692,4.692,0,0,1,0,8.267V1.945A1.869,1.869,0,0,1,.577.577,1.869,1.869,0,0,1,1.945,0H8.267a4.692,4.692,0,0,1,1.778.4,4.711,4.711,0,0,1,1.55.98l10.865,10.85A1.946,1.946,0,0,1,23.022,13.616Z" fill="#fff"/>
    <path id="Path-2" data-name="Path" d="M18.159,13.616a1.862,1.862,0,0,1-.562,1.368L10.136,22.46a1.946,1.946,0,0,1-1.383.562,1.7,1.7,0,0,1-.9-.213,4.314,4.314,0,0,1-.805-.684l7.142-7.142a1.862,1.862,0,0,0,.562-1.368,1.946,1.946,0,0,0-.562-1.383L3.328,1.383A4.711,4.711,0,0,0,1.778.4,4.692,4.692,0,0,0,0,0H3.4A4.692,4.692,0,0,1,5.182.4a4.711,4.711,0,0,1,1.55.98L17.6,12.233A1.946,1.946,0,0,1,18.159,13.616Z" transform="translate(10.697)" fill="#fff"/>
  </g>
</svg>
