<svg xmlns="http://www.w3.org/2000/svg" width="62.7" height="61.864" viewBox="0 0 62.7 61.864">
  <ellipse id="Ellipse_21" data-name="Ellipse 21" cx="31.35" cy="30.932" rx="31.35" ry="30.932" fill="#e8eef6"/>
  <path id="Icon_payment-invoice-sign-alt" data-name="Icon payment-invoice-sign-alt" d="M26.942,26.4h8.514V42.99a1.316,1.316,0,0,1-.439,1.043,1.426,1.426,0,0,1-1.044.44H12.88a1.421,1.421,0,0,1-1.043-.439,1.313,1.313,0,0,1-.439-1.043V17.832a1.313,1.313,0,0,1,.439-1.043,1.423,1.423,0,0,1,1.043-.439H25.459v8.514a1.377,1.377,0,0,0,.439,1.1,1.425,1.425,0,0,0,1.044.439Zm2.527,3.515v-.989a.53.53,0,0,0-.165-.385.473.473,0,0,0-.33-.165h-11.1a.476.476,0,0,0-.33.165.528.528,0,0,0-.165.385v.989q0,.276.165.33a.474.474,0,0,0,.33.165h11.1a.476.476,0,0,0,.33-.165c.11-.036.164-.146.164-.33Zm0,4.01v-.989a.53.53,0,0,0-.165-.385.45.45,0,0,0-.33-.11h-11.1a.447.447,0,0,0-.33.11.528.528,0,0,0-.165.385v.989a.528.528,0,0,0,.165.385.829.829,0,0,0,.33.11h11.1a.836.836,0,0,0,.33-.11.529.529,0,0,0,.164-.385Zm0,4.01v-.989a.53.53,0,0,0-.165-.385.847.847,0,0,0-.33-.11h-11.1a.837.837,0,0,0-.33.11.528.528,0,0,0-.165.385v.989a.528.528,0,0,0,.165.385.83.83,0,0,0,.33.11h11.1a.836.836,0,0,0,.33-.11.529.529,0,0,0,.164-.385ZM34.412,23.82a6.7,6.7,0,0,1,.439.55H27.436V16.954a6.929,6.929,0,0,1,.55.439l6.426,6.427Z" transform="translate(7.924 -1.539)" fill="#406ca5"/>
</svg>
