<svg xmlns="http://www.w3.org/2000/svg" xmlns:xlink="http://www.w3.org/1999/xlink" width="75.311" height="68.25" viewBox="0 0 75.311 68.25">
  <defs>
    <clipPath id="clip-path">
      <rect id="Rectangle_124" data-name="Rectangle 124" width="24.796" height="33.658" fill="#2d4c86"/>
    </clipPath>
  </defs>
  <ellipse id="Ellipse_21" data-name="Ellipse 21" cx="37.655" cy="34.125" rx="37.655" ry="34.125" fill="#d8e1ef"/>
  <g id="Group_263" data-name="Group 263" transform="translate(25.02 17.512)">
    <g id="Group_262" data-name="Group 262" clip-path="url(#clip-path)">
      <path id="Path_113" data-name="Path 113" d="M7.95,36.776c-1.69.01-2.7.988-3.236,2.662A22.3,22.3,0,0,1,3.5,42.078,1.725,1.725,0,0,1,.979,43.132c-.945-.376-1.241-1.255-.733-2.452C.828,39.306,1.572,38,2.083,36.6a4.323,4.323,0,0,1,3.362-2.907c1.845-.44,3.642-1.082,5.467-1.614a3.2,3.2,0,0,1,3.994,1.582c.764,1.283,1.65,2.5,2.313,3.833a2.768,2.768,0,0,0,2.432,1.6c1.294.154,2.576.412,3.856.663,1,.2,1.386.891,1.271,2.131a1.266,1.266,0,0,1-1.525,1.264,47.464,47.464,0,0,1-6.707-1.138c-.894-.25-1.538-1.394-2.3-2.137-.367,1.272-.8,2.643-1.132,4.036a1.22,1.22,0,0,0,.407.913c.783.747,1.611,1.449,2.446,2.139a3.526,3.526,0,0,1,1.325,2.609c.138,2.012.33,4.021.469,6.033.1,1.424-.528,2.34-1.583,2.409-1.572.1-2.309-.6-2.414-2.225s-.2-3.285-.425-4.91a3.358,3.358,0,0,0-.854-1.671,22.948,22.948,0,0,0-2.2-1.89,6.757,6.757,0,0,0-.248,1.281,7.628,7.628,0,0,1-2.715,5.782c-.966.93-1.789,2.008-2.7,2.994-1.065,1.148-2.1,1.329-2.9.519a2.063,2.063,0,0,1-.033-3.227C2.857,53.524,3.857,52.2,5,51.018a3.864,3.864,0,0,0,1.049-2.252c.6-4,1.265-8,1.905-11.99" transform="translate(0 -24.738)" fill="#2d4c86"/>
      <path id="Path_114" data-name="Path 114" d="M45.245,3.406A3.426,3.426,0,0,1,48.658,0a3.475,3.475,0,0,1,3.465,3.493,3.533,3.533,0,0,1-3.439,3.428,3.483,3.483,0,0,1-3.44-3.515" transform="translate(-35.093 0)" fill="#2d4c86"/>
    </g>
  </g>
</svg>
