<svg xmlns="http://www.w3.org/2000/svg" xmlns:xlink="http://www.w3.org/1999/xlink" width="48" height="44" viewBox="0 0 48 44">
  <defs>
    <clipPath id="clip-path">
      <rect id="Rectangle_6" data-name="Rectangle 6" width="26.977" height="21.584" fill="#f5f4f9"/>
    </clipPath>
  </defs>
  <rect id="background" width="48" height="44" rx="7" fill="#f5f4f9" opacity="0.2"/>
  <g id="Group_15" data-name="Group 15" transform="translate(11.051 11)">
    <g id="Group_14" data-name="Group 14" clip-path="url(#clip-path)">
      <path id="Path_15" data-name="Path 15" d="M0,2.7c.057,0,.114,0,.171,0H7.749L6.936.667,8.9,0,9.87,2.7h6.309V4.489h-.141c-.764,0-1.528,0-2.292,0-.121,0-.172.027-.2.153a15.305,15.305,0,0,1-2.865,6.05c-.14.18-.285.357-.432.531s-.294.336-.45.514a18.2,18.2,0,0,0,3.92,1.9l-.7,1.8c-.33-.126-.653-.244-.973-.372A20.633,20.633,0,0,1,8.312,13.1a.153.153,0,0,0-.2,0,30.937,30.937,0,0,1-5.257,2.7c-.553.22-1.114.42-1.664.626C.921,16,.664,15.581.4,15.167c-.127-.2-.266-.39-.4-.584v-.026a.42.42,0,0,0,.065-.006,23.234,23.234,0,0,0,5.88-2.342c.266-.151.528-.31.8-.473A15.171,15.171,0,0,1,2.9,4.491H0ZM11.522,4.5H4.9a12.34,12.34,0,0,0,3.319,6,10.992,10.992,0,0,0,3.305-6" transform="translate(0 0.001)" fill="#f5f4f9"/>
      <path id="Path_16" data-name="Path 16" d="M113.842,65.047h-1.887a.882.882,0,0,1-.925-.652q-.592-1.632-1.179-3.265a.171.171,0,0,0-.194-.135q-3.234,0-6.467,0a.168.168,0,0,0-.187.13q-.631,1.617-1.27,3.23a.919.919,0,0,1-.975.665H99.011c.021-.057.036-.1.053-.143q3.018-7.608,6.034-15.217a.155.155,0,0,1,.169-.121q1.152.007,2.305,0a.154.154,0,0,1,.17.118q3.024,7.627,6.052,15.253c.014.036.026.073.048.136M103.8,59.228h5.281c-.021-.057-.035-.1-.05-.138-.437-1.16-.879-2.319-1.311-3.482-.375-1.01-.741-2.024-1.105-3.039-.072-.2-.12-.411-.178-.613-.743,2.475-1.783,4.836-2.636,7.272" transform="translate(-86.866 -43.463)" fill="#f5f4f9"/>
    </g>
  </g>
</svg>
