<svg xmlns="http://www.w3.org/2000/svg" xmlns:xlink="http://www.w3.org/1999/xlink" width="46" height="44" viewBox="0 0 46 44">
  <defs>
    <clipPath id="clip-path">
      <rect id="Rectangle_5" data-name="Rectangle 5" width="22.482" height="22.508" fill="#f5f4f9"/>
    </clipPath>
  </defs>
  <g id="Setting_Icon" data-name="Setting Icon">
    <rect id="background" width="46" height="44" rx="7" fill="#f5f4f9" opacity="0.2"/>
  </g>
  <g id="Group_13" data-name="Group 13" transform="translate(11.759 10.746)">
    <g id="Group_12" data-name="Group 12" transform="translate(0 0)" clip-path="url(#clip-path)">
      <path id="Path_13" data-name="Path 13" d="M11.52,22.508h-.5a.985.985,0,0,0-.129-.02,10.1,10.1,0,0,1-1.914-.222A11.075,11.075,0,0,1,2.7,18.541a11.116,11.116,0,0,1-2.664-6.45,10.578,10.578,0,0,1,.3-3.525A11.084,11.084,0,0,1,6.246,1.187,10.542,10.542,0,0,1,10.279.055L10.963,0h.5a.834.834,0,0,0,.128.021,10,10,0,0,1,1.9.219,11.066,11.066,0,0,1,6.443,3.906,11.112,11.112,0,0,1,2.514,6.273,10.5,10.5,0,0,1-.227,3.2,11.073,11.073,0,0,1-5.646,7.519,10.691,10.691,0,0,1-4.4,1.318l-.654.054M6.272,19.551c0-.531-.008-1.044,0-1.556a6.042,6.042,0,0,1,.069-.918,4.806,4.806,0,0,1,1.523-2.8,4.863,4.863,0,0,1,4.217-1.256,4.686,4.686,0,0,1,2.388,1.124,4.866,4.866,0,0,1,1.736,3.621c.019.537,0,1.074,0,1.611v.163a9.677,9.677,0,1,0-9.938.006m1.552-.612c0,.42,0,.84,0,1.26a.149.149,0,0,0,.118.167,9.762,9.762,0,0,0,2.59.555,9.664,9.664,0,0,0,4.008-.556.158.158,0,0,0,.123-.179c0-.776,0-1.553,0-2.329a3.217,3.217,0,0,0-.035-.466,3.42,3.42,0,0,0-6.8.522c0,.342,0,.684,0,1.025" transform="translate(0 0)" fill="#f5f4f9"/>
      <path id="Path_14" data-name="Path 14" d="M31.172,25.368a3.678,3.678,0,1,1,3.678-3.682,3.666,3.666,0,0,1-3.678,3.682m0-1.552a2.126,2.126,0,1,0-2.122-2.148,2.125,2.125,0,0,0,2.122,2.148" transform="translate(-19.932 -13.056)" fill="#f5f4f9"/>
    </g>
  </g>
</svg>
