<svg id="Group_23" data-name="Group 23" xmlns="http://www.w3.org/2000/svg" xmlns:xlink="http://www.w3.org/1999/xlink" width="8.057" height="12.392" viewBox="0 0 8.057 12.392">
  <defs>
    <clipPath id="clip-path">
      <rect id="Rectangle_8" data-name="Rectangle 8" width="8.057" height="12.392" fill="#a0a5a8"/>
    </clipPath>
  </defs>
  <g id="Group_22" data-name="Group 22" clip-path="url(#clip-path)">
    <path id="Path_19" data-name="Path 19" d="M4.052,0a2.575,2.575,0,0,0,.36,1.006c.442.753.9,1.494,1.364,2.236.389.63.788,1.255,1.177,1.885a8.868,8.868,0,0,1,.753,1.532,4.642,4.642,0,0,1,.238,2.765,3.728,3.728,0,0,1-1.238,1.995,3.934,3.934,0,0,1-1.625.852,4.5,4.5,0,0,1-1.2.119,3.743,3.743,0,0,1-1.737-.429A3.857,3.857,0,0,1,.064,9.155,4.391,4.391,0,0,1,.272,6.918,10.275,10.275,0,0,1,1.394,4.7c.4-.621.8-1.241,1.183-1.868.332-.538.658-1.08.968-1.63A4.983,4.983,0,0,0,4.024.044.256.256,0,0,1,4.052,0M3.533,11.378a.374.374,0,0,0,.42-.21c.112-.25-.067-.479-.374-.491A1.98,1.98,0,0,1,1.93,9.751,2.042,2.042,0,0,1,1.6,8.675a.341.341,0,0,0-.349-.37A.351.351,0,0,0,.915,8.7a2.5,2.5,0,0,0,.253,1.1,2.707,2.707,0,0,0,2.365,1.576" transform="translate(0 0.001)" fill="#a0a5a8"/>
  </g>
</svg>
