<svg id="Component_15_1" data-name="Component 15 – 1" xmlns="http://www.w3.org/2000/svg" width="30.698" height="30.698"
    viewBox="0 0 30.698 30.698">
    <g id="thumb_up_black_24dp" transform="translate(6.617 6.618)">
        <path id="Path_89" data-name="Path 89" d="M0,0H17.463V17.463H0Z" transform="translate(0.001)" fill="none" />
        <path id="Path_90" data-name="Path 90"
            d="M1,15.552H3.91V6.821H1Zm16.007-8a1.459,1.459,0,0,0-1.455-1.455H10.961l.691-3.325.022-.233a1.1,1.1,0,0,0-.32-.771L10.583,1,5.795,5.795a1.423,1.423,0,0,0-.429,1.026V14.1a1.459,1.459,0,0,0,1.455,1.455h6.548a1.445,1.445,0,0,0,1.339-.888l2.2-5.13a1.438,1.438,0,0,0,.1-.531Z"
            transform="translate(-0.272 -0.272)" fill="#3fb90c" />
    </g>
    <g id="Path_91" data-name="Path 91" fill="none">
        <path d="M15.349,0A15.349,15.349,0,1,1,0,15.349,15.349,15.349,0,0,1,15.349,0Z" stroke="none" />
        <path
            d="M 15.34912109375 1.000001907348633 C 11.51633071899414 1.000001907348633 7.91295051574707 2.492570877075195 5.202760696411133 5.202760696411133 C 2.492570877075195 7.91295051574707 1.000001907348633 11.51633071899414 1.000001907348633 15.34912109375 C 1.000001907348633 19.18191146850586 2.492570877075195 22.78529167175293 5.202760696411133 25.49548149108887 C 7.91295051574707 28.2056713104248 11.51633071899414 29.69824028015137 15.34912109375 29.69824028015137 C 19.18191146850586 29.69824028015137 22.78529167175293 28.2056713104248 25.49548149108887 25.49548149108887 C 28.2056713104248 22.78529167175293 29.69824028015137 19.18191146850586 29.69824028015137 15.34912109375 C 29.69824028015137 11.51633071899414 28.2056713104248 7.91295051574707 25.49548149108887 5.202760696411133 C 22.78529167175293 2.492570877075195 19.18191146850586 1.000001907348633 15.34912109375 1.000001907348633 M 15.34912109375 1.9073486328125e-06 C 23.82620048522949 1.9073486328125e-06 30.69824028015137 6.872030258178711 30.69824028015137 15.34912109375 C 30.69824028015137 23.82620048522949 23.82620048522949 30.69824028015137 15.34912109375 30.69824028015137 C 6.872030258178711 30.69824028015137 1.9073486328125e-06 23.82620048522949 1.9073486328125e-06 15.34912109375 C 1.9073486328125e-06 6.872030258178711 6.872030258178711 1.9073486328125e-06 15.34912109375 1.9073486328125e-06 Z"
            stroke="none" fill="#27ae2b" />
    </g>
</svg>