<svg xmlns="http://www.w3.org/2000/svg" xmlns:xlink="http://www.w3.org/1999/xlink" width="26.549" height="32.981" viewBox="0 0 26.549 32.981">
  <defs>
    <clipPath id="clip-path">
      <rect id="Rectangle_35" data-name="Rectangle 35" width="26.549" height="32.981" transform="translate(0 -2)" fill="#406ca5"/>
    </clipPath>
  </defs>
  <g id="Group_137" data-name="Group 137" transform="translate(-2.429 -0.835)">
    <g id="Group_136" data-name="Group 136" transform="translate(2.429 2.835)" clip-path="url(#clip-path)">
      <path id="Path_78" data-name="Path 78" d="M0,17.936v-.913c.028-.17.06-.339.082-.509.079-.612.12-1.231.236-1.835A13.235,13.235,0,0,1,4.37,7.587a54.757,54.757,0,0,1,4.717-3.8,13.728,13.728,0,0,0,3.629-5.082,24.375,24.375,0,0,0,3.8,5.035,52.576,52.576,0,0,1,5.169,3.51,12.666,12.666,0,0,1,4.727,12.057,13.067,13.067,0,0,1-3.773,7.665,12.513,12.513,0,0,1-11.729,3.758C4.843,29.613.784,24.148.148,19.024.1,18.661.049,18.3,0,17.936m5.254-2.95h0c0,1.108-.007,2.216.008,3.324a.716.716,0,0,0,.175.456q3.449,3.462,6.913,6.91c.165.165.268.189.446.011q3.405-3.414,6.826-6.812c.173-.172.171-.275,0-.446q-3.457-3.454-6.907-6.915a.664.664,0,0,0-.422-.178c-2.237-.01-4.473,0-6.71-.009-.254,0-.338.077-.335.336.012,1.108.005,2.216.005,3.324m18.484,3.642L16.5,11.4l-1,1,6.249,6.267L15.6,24.81,16.6,25.831l7.134-7.2" fill="#406ca5"/>
      <path id="Path_79" data-name="Path 79" d="M127.211,218.78c0,.727,0,.727-.709.727-.692,0-.692,0-.692-.717s0-.726.715-.726c.687,0,.687,0,.687.716" transform="translate(-117.59 -203.817)" fill="#406ca5"/>
    </g>
  </g>
</svg>
